<svg width="168" height="48" viewBox="0 0 168 48" fill="none" xmlns="http://www.w3.org/2000/svg">
<rect x="0.25" y="0.25" width="167.5" height="47.5" rx="7.75" fill="black"/>
<rect x="0.25" y="0.25" width="167.5" height="47.5" rx="7.75" stroke="#B1F128" stroke-width="0.5"/>
<path d="M57.8523 11C57.7741 10.7609 57.6712 10.5466 57.5433 10.3572C57.4179 10.1655 57.2675 10.0021 57.0923 9.86719C56.9195 9.73224 56.723 9.62926 56.5028 9.55824C56.2827 9.48722 56.0412 9.4517 55.7784 9.4517C55.3475 9.4517 54.9557 9.56297 54.603 9.78551C54.2502 10.008 53.9697 10.3359 53.7614 10.7692C53.553 11.2024 53.4489 11.7339 53.4489 12.3636C53.4489 12.9934 53.5542 13.5249 53.7649 13.9581C53.9756 14.3913 54.2609 14.7192 54.6207 14.9418C54.9806 15.1643 55.3854 15.2756 55.8352 15.2756C56.2519 15.2756 56.6188 15.1868 56.9361 15.0092C57.2557 14.8293 57.5043 14.576 57.6818 14.2493C57.8617 13.9202 57.9517 13.5331 57.9517 13.0881L58.2216 13.1449H56.0341V12.3636H58.804V13.1449C58.804 13.7438 58.6761 14.2647 58.4205 14.7074C58.1671 15.1501 57.8168 15.4934 57.3693 15.7372C56.9242 15.9787 56.4129 16.0994 55.8352 16.0994C55.1913 16.0994 54.6255 15.9479 54.1378 15.6449C53.6525 15.3419 53.2737 14.911 53.0014 14.3523C52.7315 13.7936 52.5966 13.1307 52.5966 12.3636C52.5966 11.7884 52.6735 11.2711 52.8274 10.8118C52.9837 10.3501 53.2038 9.95715 53.4879 9.63281C53.772 9.30848 54.1082 9.0599 54.4964 8.88707C54.8847 8.71425 55.312 8.62784 55.7784 8.62784C56.1619 8.62784 56.5194 8.68584 56.8509 8.80185C57.1847 8.91548 57.4818 9.07765 57.7422 9.28835C58.005 9.49669 58.224 9.74645 58.3991 10.0376C58.5743 10.3265 58.6951 10.6473 58.7614 11H57.8523ZM60.1123 16V8.72727H64.5015V9.50852H60.993V11.9659H64.2743V12.7472H60.993V15.2188H64.5583V16H60.1123ZM65.4912 9.50852V8.72727H70.9457V9.50852H68.6588V16H67.7781V9.50852H65.4912ZM75.5981 8.72727V16H74.7174V8.72727H75.5981ZM76.7662 9.50852V8.72727H82.2207V9.50852H79.9338V16H79.0531V9.50852H76.7662ZM92.1288 12.3636C92.1288 13.1307 91.9903 13.7936 91.7133 14.3523C91.4363 14.911 91.0563 15.3419 90.5734 15.6449C90.0904 15.9479 89.5388 16.0994 88.9185 16.0994C88.2983 16.0994 87.7467 15.9479 87.2637 15.6449C86.7808 15.3419 86.4008 14.911 86.1238 14.3523C85.8468 13.7936 85.7083 13.1307 85.7083 12.3636C85.7083 11.5966 85.8468 10.9337 86.1238 10.375C86.4008 9.81629 86.7808 9.38542 87.2637 9.08239C87.7467 8.77936 88.2983 8.62784 88.9185 8.62784C89.5388 8.62784 90.0904 8.77936 90.5734 9.08239C91.0563 9.38542 91.4363 9.81629 91.7133 10.375C91.9903 10.9337 92.1288 11.5966 92.1288 12.3636ZM91.2765 12.3636C91.2765 11.7339 91.1711 11.2024 90.9604 10.7692C90.7521 10.3359 90.4692 10.008 90.1117 9.78551C89.7566 9.56297 89.3589 9.4517 88.9185 9.4517C88.4782 9.4517 88.0793 9.56297 87.7218 9.78551C87.3667 10.008 87.0838 10.3359 86.8731 10.7692C86.6647 11.2024 86.5606 11.7339 86.5606 12.3636C86.5606 12.9934 86.6647 13.5249 86.8731 13.9581C87.0838 14.3913 87.3667 14.7192 87.7218 14.9418C88.0793 15.1643 88.4782 15.2756 88.9185 15.2756C89.3589 15.2756 89.7566 15.1643 90.1117 14.9418C90.4692 14.7192 90.7521 14.3913 90.9604 13.9581C91.1711 13.5249 91.2765 12.9934 91.2765 12.3636ZM99.1766 8.72727V16H98.3244L94.3613 10.2898H94.2903V16H93.4096V8.72727H94.2619L98.2391 14.4517H98.3102V8.72727H99.1766Z" fill="white"/>
<path d="M62.0611 29.0895C61.9545 28.7443 61.8075 28.4354 61.62 28.1626C61.4368 27.8857 61.2152 27.6491 60.9553 27.4531C60.6996 27.2571 60.4055 27.1101 60.0732 27.0121C59.7408 26.9098 59.3786 26.8587 58.9865 26.8587C58.2834 26.8587 57.657 27.0355 57.1072 27.3892C56.5575 27.7429 56.125 28.2628 55.8097 28.9489C55.4986 29.6307 55.343 30.4616 55.343 31.4418C55.343 32.4304 55.4986 33.2678 55.8097 33.9538C56.1207 34.6399 56.5533 35.1619 57.1072 35.5199C57.6612 35.8736 58.3047 36.0504 59.0376 36.0504C59.7024 36.0504 60.2777 35.9226 60.7635 35.6669C61.2536 35.4112 61.6307 35.049 61.8949 34.5803C62.1591 34.1072 62.2912 33.5533 62.2912 32.9183L62.8281 33.0014H59.2741V31.1477H64.5859V32.7202C64.5859 33.8409 64.3473 34.8104 63.87 35.6286C63.3928 36.4467 62.7365 37.0774 61.9013 37.5206C61.0661 37.9595 60.1072 38.179 59.0249 38.179C57.8189 38.179 56.7599 37.9084 55.848 37.3672C54.9403 36.8217 54.2308 36.0483 53.7195 35.0469C53.2124 34.0412 52.9588 32.848 52.9588 31.4673C52.9588 30.4105 53.108 29.4666 53.4062 28.6357C53.7088 27.8047 54.1307 27.0994 54.6719 26.5199C55.2131 25.9361 55.848 25.4929 56.5767 25.1903C57.3054 24.8835 58.098 24.7301 58.9545 24.7301C59.679 24.7301 60.3544 24.8366 60.9808 25.0497C61.6072 25.2585 62.1634 25.5568 62.6491 25.9446C63.1392 26.3324 63.5419 26.7926 63.8572 27.3253C64.1726 27.858 64.3793 28.446 64.4773 29.0895H62.0611ZM71.0775 38.1918C70.1187 38.1918 69.2877 37.9808 68.5846 37.5589C67.8815 37.1371 67.336 36.5469 66.9482 35.7884C66.5647 35.0298 66.3729 34.1435 66.3729 33.1293C66.3729 32.1151 66.5647 31.2266 66.9482 30.4638C67.336 29.701 67.8815 29.1087 68.5846 28.6868C69.2877 28.2649 70.1187 28.054 71.0775 28.054C72.0363 28.054 72.8673 28.2649 73.5704 28.6868C74.2735 29.1087 74.8168 29.701 75.2004 30.4638C75.5881 31.2266 75.782 32.1151 75.782 33.1293C75.782 34.1435 75.5881 35.0298 75.2004 35.7884C74.8168 36.5469 74.2735 37.1371 73.5704 37.5589C72.8673 37.9808 72.0363 38.1918 71.0775 38.1918ZM71.0903 36.3381C71.6102 36.3381 72.0448 36.1953 72.3942 35.9098C72.7437 35.62 73.0036 35.2322 73.1741 34.7464C73.3488 34.2607 73.4361 33.7195 73.4361 33.1229C73.4361 32.522 73.3488 31.9787 73.1741 31.4929C73.0036 31.0028 72.7437 30.6129 72.3942 30.3232C72.0448 30.0334 71.6102 29.8885 71.0903 29.8885C70.5576 29.8885 70.1144 30.0334 69.7607 30.3232C69.4113 30.6129 69.1492 31.0028 68.9745 31.4929C68.804 31.9787 68.7188 32.522 68.7188 33.1229C68.7188 33.7195 68.804 34.2607 68.9745 34.7464C69.1492 35.2322 69.4113 35.62 69.7607 35.9098C70.1144 36.1953 70.5576 36.3381 71.0903 36.3381ZM82.0467 38.1918C81.0878 38.1918 80.2569 37.9808 79.5538 37.5589C78.8506 37.1371 78.3052 36.5469 77.9174 35.7884C77.5339 35.0298 77.3421 34.1435 77.3421 33.1293C77.3421 32.1151 77.5339 31.2266 77.9174 30.4638C78.3052 29.701 78.8506 29.1087 79.5538 28.6868C80.2569 28.2649 81.0878 28.054 82.0467 28.054C83.0055 28.054 83.8364 28.2649 84.5396 28.6868C85.2427 29.1087 85.786 29.701 86.1695 30.4638C86.5573 31.2266 86.7512 32.1151 86.7512 33.1293C86.7512 34.1435 86.5573 35.0298 86.1695 35.7884C85.786 36.5469 85.2427 37.1371 84.5396 37.5589C83.8364 37.9808 83.0055 38.1918 82.0467 38.1918ZM82.0594 36.3381C82.5793 36.3381 83.014 36.1953 83.3634 35.9098C83.7128 35.62 83.9728 35.2322 84.1432 34.7464C84.318 34.2607 84.4053 33.7195 84.4053 33.1229C84.4053 32.522 84.318 31.9787 84.1432 31.4929C83.9728 31.0028 83.7128 30.6129 83.3634 30.3232C83.014 30.0334 82.5793 29.8885 82.0594 29.8885C81.5268 29.8885 81.0836 30.0334 80.7299 30.3232C80.3805 30.6129 80.1184 31.0028 79.9437 31.4929C79.7732 31.9787 79.688 32.522 79.688 33.1229C79.688 33.7195 79.7732 34.2607 79.9437 34.7464C80.1184 35.2322 80.3805 35.62 80.7299 35.9098C81.0836 36.1953 81.5268 36.3381 82.0594 36.3381ZM93.003 41.8864C92.1721 41.8864 91.4583 41.7734 90.8617 41.5476C90.2651 41.326 89.7857 41.0277 89.4235 40.6527C89.0613 40.2777 88.8099 39.8622 88.6692 39.4062L90.753 38.9013C90.8468 39.093 90.9832 39.2827 91.1621 39.4702C91.3411 39.6619 91.5819 39.8196 91.8844 39.9432C92.1913 40.071 92.5769 40.1349 93.0414 40.1349C93.6976 40.1349 94.241 39.9751 94.6714 39.6555C95.1018 39.3402 95.317 38.8203 95.317 38.0959V36.2358H95.2019C95.0826 36.4744 94.9079 36.7195 94.6778 36.9709C94.4519 37.2223 94.1515 37.4332 93.7765 37.6037C93.4057 37.7741 92.9391 37.8594 92.3766 37.8594C91.6224 37.8594 90.9384 37.6825 90.3248 37.3288C89.7154 36.9709 89.2296 36.4382 88.8674 35.7308C88.5094 35.0192 88.3305 34.1286 88.3305 33.0589C88.3305 31.9808 88.5094 31.071 88.8674 30.3295C89.2296 29.5838 89.7175 29.0192 90.3312 28.6357C90.9448 28.2479 91.6288 28.054 92.383 28.054C92.9583 28.054 93.4313 28.152 93.802 28.348C94.177 28.5398 94.4753 28.772 94.6969 29.0447C94.9185 29.3132 95.0868 29.5668 95.2019 29.8054H95.3297V28.1818H97.6117V38.1598C97.6117 38.9993 97.4114 39.6939 97.0109 40.2436C96.6103 40.7933 96.0627 41.2045 95.3681 41.4773C94.6735 41.75 93.8851 41.8864 93.003 41.8864ZM93.0222 36.044C93.5123 36.044 93.9299 35.9247 94.2751 35.6861C94.6202 35.4474 94.8823 35.1044 95.0613 34.657C95.2403 34.2095 95.3297 33.6726 95.3297 33.0462C95.3297 32.4283 95.2403 31.8871 95.0613 31.4226C94.8866 30.9581 94.6266 30.598 94.2815 30.3423C93.9405 30.0824 93.5208 29.9524 93.0222 29.9524C92.5066 29.9524 92.0762 30.0866 91.731 30.3551C91.3859 30.6236 91.1259 30.9922 90.9512 31.4609C90.7765 31.9254 90.6891 32.4538 90.6891 33.0462C90.6891 33.647 90.7765 34.1733 90.9512 34.625C91.1302 35.0724 91.3922 35.4219 91.7374 35.6733C92.0868 35.9205 92.5151 36.044 93.0222 36.044ZM102.315 24.9091V38H100.001V24.9091H102.315ZM109.059 38.1918C108.075 38.1918 107.225 37.9872 106.509 37.5781C105.797 37.1648 105.249 36.581 104.866 35.8267C104.482 35.0682 104.291 34.1754 104.291 33.1484C104.291 32.1385 104.482 31.2521 104.866 30.4893C105.254 29.7223 105.795 29.1257 106.49 28.6996C107.184 28.2692 108 28.054 108.938 28.054C109.543 28.054 110.114 28.152 110.651 28.348C111.192 28.5398 111.669 28.8381 112.083 29.2429C112.5 29.6477 112.828 30.1634 113.067 30.7898C113.306 31.4119 113.425 32.1534 113.425 33.0142V33.7237H105.377V32.1641H111.207C111.203 31.7209 111.107 31.3267 110.919 30.9815C110.732 30.6321 110.47 30.3572 110.133 30.157C109.801 29.9567 109.413 29.8565 108.97 29.8565C108.497 29.8565 108.081 29.9716 107.723 30.2017C107.365 30.4276 107.086 30.7259 106.886 31.0966C106.69 31.4631 106.59 31.8658 106.585 32.3047V33.6662C106.585 34.2372 106.69 34.7273 106.899 35.1364C107.107 35.5412 107.399 35.8523 107.774 36.0696C108.149 36.2827 108.588 36.3892 109.091 36.3892C109.428 36.3892 109.732 36.3423 110.005 36.2486C110.278 36.1506 110.514 36.0078 110.715 35.8203C110.915 35.6328 111.066 35.4006 111.168 35.1236L113.329 35.3665C113.193 35.9375 112.933 36.4361 112.549 36.8622C112.17 37.2841 111.684 37.6122 111.092 37.8466C110.499 38.0767 109.822 38.1918 109.059 38.1918ZM119.986 38V24.9091H124.895C125.9 24.9091 126.744 25.0966 127.426 25.4716C128.112 25.8466 128.63 26.3622 128.979 27.0185C129.333 27.6705 129.51 28.4119 129.51 29.2429C129.51 30.0824 129.333 30.8281 128.979 31.4801C128.625 32.1321 128.103 32.6456 127.413 33.0206C126.723 33.3913 125.873 33.5767 124.863 33.5767H121.609V31.6271H124.543C125.131 31.6271 125.613 31.5249 125.988 31.3203C126.363 31.1158 126.64 30.8345 126.819 30.4766C127.002 30.1186 127.094 29.7074 127.094 29.2429C127.094 28.7784 127.002 28.3693 126.819 28.0156C126.64 27.6619 126.361 27.3871 125.981 27.1911C125.606 26.9908 125.123 26.8906 124.53 26.8906H122.357V38H119.986ZM133.799 24.9091V38H131.485V24.9091H133.799ZM139.022 38.1982C138.4 38.1982 137.839 38.0874 137.341 37.8658C136.846 37.6399 136.454 37.3075 136.165 36.8686C135.879 36.4297 135.736 35.8885 135.736 35.245C135.736 34.6911 135.839 34.233 136.043 33.8707C136.248 33.5085 136.527 33.2188 136.881 33.0014C137.234 32.7841 137.633 32.62 138.076 32.5092C138.523 32.3942 138.986 32.3111 139.463 32.2599C140.038 32.2003 140.505 32.147 140.863 32.1001C141.221 32.049 141.481 31.9723 141.643 31.87C141.809 31.7635 141.892 31.5994 141.892 31.3778V31.3395C141.892 30.858 141.749 30.4851 141.464 30.2209C141.178 29.9567 140.767 29.8246 140.23 29.8246C139.663 29.8246 139.214 29.9482 138.881 30.1953C138.553 30.4425 138.332 30.7344 138.217 31.071L136.056 30.7642C136.226 30.1676 136.508 29.669 136.9 29.2685C137.292 28.8636 137.771 28.5611 138.338 28.3608C138.905 28.1562 139.531 28.054 140.217 28.054C140.69 28.054 141.161 28.1094 141.63 28.2202C142.099 28.331 142.527 28.5142 142.915 28.7699C143.302 29.0213 143.614 29.3643 143.848 29.799C144.087 30.2337 144.206 30.777 144.206 31.429V38H141.981V36.6513H141.905C141.764 36.924 141.566 37.1797 141.31 37.4183C141.059 37.6527 140.741 37.8423 140.358 37.9872C139.979 38.1278 139.533 38.1982 139.022 38.1982ZM139.623 36.4979C140.087 36.4979 140.49 36.4062 140.831 36.223C141.172 36.0355 141.434 35.7884 141.617 35.4815C141.805 35.1747 141.898 34.8402 141.898 34.478V33.321C141.826 33.3807 141.702 33.4361 141.528 33.4872C141.357 33.5384 141.165 33.5831 140.952 33.6214C140.739 33.6598 140.528 33.6939 140.319 33.7237C140.111 33.7536 139.93 33.7791 139.776 33.8004C139.431 33.8473 139.122 33.924 138.849 34.0305C138.577 34.1371 138.361 34.2862 138.204 34.478C138.046 34.6655 137.967 34.9084 137.967 35.2067C137.967 35.6328 138.123 35.9545 138.434 36.1719C138.745 36.3892 139.141 36.4979 139.623 36.4979ZM147.637 41.6818C147.322 41.6818 147.03 41.6563 146.761 41.6051C146.497 41.5582 146.286 41.5028 146.129 41.4389L146.666 39.6364C147.002 39.7344 147.303 39.7813 147.567 39.777C147.831 39.7727 148.063 39.6896 148.264 39.5277C148.468 39.37 148.641 39.1058 148.781 38.7351L148.98 38.2045L145.419 28.1818H147.874L150.136 35.5966H150.239L152.508 28.1818H154.969L151.038 39.1889C150.855 39.7088 150.612 40.1541 150.309 40.5249C150.007 40.8999 149.636 41.1854 149.197 41.3814C148.762 41.5817 148.242 41.6818 147.637 41.6818Z" fill="white"/>
<path d="M16.8494 12.5786L28.5027 24.0066L16.936 35.5399C16.7468 35.2935 16.5999 35.0173 16.5014 34.7226C16.4504 34.389 16.4504 34.0496 16.5014 33.7159V14.0893C16.4667 13.5626 16.588 13.0359 16.848 12.5786M33.5227 19.0226L29.7187 22.7906L18.204 11.4666C18.5774 11.3373 18.9774 11.3013 19.368 11.3626C19.9814 11.5306 20.5667 11.7893 21.104 12.1266L31.5254 17.8933C32.2027 18.2573 32.8627 18.6399 33.5227 19.0226ZM29.72 25.2399L33.5054 28.9573L30.7614 30.4853L22.3894 35.1386C21.696 35.5213 21 35.8866 20.3227 36.3039C20.0329 36.4844 19.7079 36.6009 19.3694 36.6457C19.031 36.6906 18.6868 36.6627 18.36 36.5639L29.72 25.2399ZM39.5334 24.0066C39.5431 24.4728 39.4253 24.9329 39.1926 25.337C38.96 25.7412 38.6214 26.0742 38.2134 26.2999L35.0854 28.0359L30.9694 24.0066L35.1027 19.9079C36.1627 20.4986 37.2054 21.0893 38.2467 21.6453C38.662 21.8774 39.0031 22.2223 39.2306 22.6402C39.458 23.0581 39.5639 23.5318 39.5334 24.0066Z" fill="white"/>
</svg>
