<svg width="168" height="48" viewBox="0 0 168 48" fill="none" xmlns="http://www.w3.org/2000/svg">
<rect x="0.25" y="0.25" width="167.5" height="47.5" rx="7.75" fill="black"/>
<rect x="0.25" y="0.25" width="167.5" height="47.5" rx="7.75" stroke="#B1F128" stroke-width="0.5"/>
<path d="M55.125 16H52.8807V8.72727H55.2244C55.9299 8.72727 56.5336 8.87287 57.0355 9.16406C57.5374 9.45289 57.9221 9.86837 58.1896 10.4105C58.4571 10.9503 58.5909 11.5966 58.5909 12.3494C58.5909 13.107 58.456 13.7592 58.1861 14.3061C57.9162 14.8506 57.5232 15.2696 57.0071 15.5632C56.491 15.8544 55.8636 16 55.125 16ZM53.7614 15.2188H55.0682C55.6695 15.2188 56.1679 15.1027 56.5632 14.8707C56.9586 14.6387 57.2533 14.3085 57.4474 13.88C57.6416 13.4515 57.7386 12.9413 57.7386 12.3494C57.7386 11.7623 57.6428 11.2569 57.451 10.8331C57.2592 10.407 56.9728 10.0803 56.5916 9.85298C56.2105 9.62334 55.7358 9.50852 55.1676 9.50852H53.7614V15.2188ZM61.9705 16.1136C61.478 16.1136 61.046 15.9964 60.6743 15.7621C60.305 15.5277 60.0161 15.1998 59.8078 14.7784C59.6018 14.357 59.4989 13.8646 59.4989 13.3011C59.4989 12.733 59.6018 12.237 59.8078 11.8132C60.0161 11.3894 60.305 11.0604 60.6743 10.826C61.046 10.5916 61.478 10.4744 61.9705 10.4744C62.4629 10.4744 62.8938 10.5916 63.2631 10.826C63.6348 11.0604 63.9236 11.3894 64.1295 11.8132C64.3379 12.237 64.442 12.733 64.442 13.3011C64.442 13.8646 64.3379 14.357 64.1295 14.7784C63.9236 15.1998 63.6348 15.5277 63.2631 15.7621C62.8938 15.9964 62.4629 16.1136 61.9705 16.1136ZM61.9705 15.3608C62.3445 15.3608 62.6523 15.2649 62.8938 15.0732C63.1352 14.8814 63.314 14.6293 63.43 14.3168C63.546 14.0043 63.604 13.6657 63.604 13.3011C63.604 12.9366 63.546 12.5968 63.43 12.282C63.314 11.9671 63.1352 11.7126 62.8938 11.5185C62.6523 11.3243 62.3445 11.2273 61.9705 11.2273C61.5964 11.2273 61.2886 11.3243 61.0472 11.5185C60.8057 11.7126 60.6269 11.9671 60.5109 12.282C60.3949 12.5968 60.3369 12.9366 60.3369 13.3011C60.3369 13.6657 60.3949 14.0043 60.5109 14.3168C60.6269 14.6293 60.8057 14.8814 61.0472 15.0732C61.2886 15.2649 61.5964 15.3608 61.9705 15.3608ZM66.5716 16L64.9097 10.5455H65.7903L66.9693 14.7216H67.0261L68.1909 10.5455H69.0858L70.2364 14.7074H70.2932L71.4722 10.5455H72.3528L70.6909 16H69.867L68.6739 11.8097H68.5886L67.3955 16H66.5716ZM74.0989 12.7188V16H73.2608V10.5455H74.0705V11.3977H74.1415C74.2693 11.1207 74.4634 10.8982 74.7239 10.7301C74.9843 10.5597 75.3205 10.4744 75.7324 10.4744C76.1017 10.4744 76.4249 10.5502 76.7018 10.7017C76.9788 10.8509 77.1943 11.0781 77.3482 11.3835C77.502 11.6866 77.579 12.0701 77.579 12.5341V16H76.7409V12.5909C76.7409 12.1624 76.6296 11.8286 76.4071 11.5895C76.1846 11.348 75.8792 11.2273 75.4909 11.2273C75.2234 11.2273 74.9843 11.2853 74.7736 11.4013C74.5652 11.5173 74.4007 11.6866 74.28 11.9091C74.1592 12.1316 74.0989 12.4015 74.0989 12.7188ZM79.7485 8.72727V16H78.9104V8.72727H79.7485ZM83.2994 16.1136C82.8069 16.1136 82.3749 15.9964 82.0032 15.7621C81.6339 15.5277 81.3451 15.1998 81.1367 14.7784C80.9308 14.357 80.8278 13.8646 80.8278 13.3011C80.8278 12.733 80.9308 12.237 81.1367 11.8132C81.3451 11.3894 81.6339 11.0604 82.0032 10.826C82.3749 10.5916 82.8069 10.4744 83.2994 10.4744C83.7918 10.4744 84.2227 10.5916 84.592 10.826C84.9637 11.0604 85.2525 11.3894 85.4585 11.8132C85.6668 12.237 85.771 12.733 85.771 13.3011C85.771 13.8646 85.6668 14.357 85.4585 14.7784C85.2525 15.1998 84.9637 15.5277 84.592 15.7621C84.2227 15.9964 83.7918 16.1136 83.2994 16.1136ZM83.2994 15.3608C83.6734 15.3608 83.9812 15.2649 84.2227 15.0732C84.4641 14.8814 84.6429 14.6293 84.7589 14.3168C84.8749 14.0043 84.9329 13.6657 84.9329 13.3011C84.9329 12.9366 84.8749 12.5968 84.7589 12.282C84.6429 11.9671 84.4641 11.7126 84.2227 11.5185C83.9812 11.3243 83.6734 11.2273 83.2994 11.2273C82.9253 11.2273 82.6175 11.3243 82.3761 11.5185C82.1346 11.7126 81.9558 11.9671 81.8398 12.282C81.7238 12.5968 81.6658 12.9366 81.6658 13.3011C81.6658 13.6657 81.7238 14.0043 81.8398 14.3168C81.9558 14.6293 82.1346 14.8814 82.3761 15.0732C82.6175 15.2649 82.9253 15.3608 83.2994 15.3608ZM88.4554 16.1278C88.1097 16.1278 87.796 16.0627 87.5143 15.9325C87.2326 15.8 87.0089 15.6094 86.8431 15.3608C86.6774 15.1098 86.5946 14.8068 86.5946 14.4517C86.5946 14.1392 86.6561 13.8859 86.7792 13.6918C86.9023 13.4953 87.0669 13.3414 87.2728 13.2301C87.4788 13.1188 87.7061 13.036 87.9547 12.9815C88.2056 12.9247 88.4577 12.8797 88.711 12.8466C89.0425 12.804 89.3112 12.772 89.5172 12.7507C89.7255 12.727 89.877 12.688 89.9717 12.6335C90.0688 12.5791 90.1173 12.4844 90.1173 12.3494V12.321C90.1173 11.9706 90.0214 11.6984 89.8297 11.5043C89.6403 11.3101 89.3526 11.2131 88.9667 11.2131C88.5666 11.2131 88.2529 11.3007 88.0257 11.4759C87.7984 11.651 87.6386 11.8381 87.5463 12.0369L86.7508 11.7528C86.8929 11.4214 87.0823 11.1634 87.319 10.9787C87.5581 10.7917 87.8185 10.6615 88.1002 10.5881C88.3843 10.5123 88.6637 10.4744 88.9383 10.4744C89.1135 10.4744 89.3147 10.4957 89.542 10.5384C89.7716 10.5786 89.993 10.6626 90.2061 10.7905C90.4215 10.9183 90.6002 11.1113 90.7423 11.3693C90.8843 11.6274 90.9554 11.973 90.9554 12.4062V16H90.1173V15.2614H90.0747C90.0179 15.3797 89.9232 15.5064 89.7906 15.6413C89.658 15.7763 89.4816 15.8911 89.2615 15.9858C89.0413 16.0805 88.7726 16.1278 88.4554 16.1278ZM88.5832 15.375C88.9146 15.375 89.194 15.3099 89.4213 15.1797C89.6509 15.0495 89.8237 14.8814 89.9397 14.6754C90.0581 14.4695 90.1173 14.2528 90.1173 14.0256V13.2585C90.0818 13.3011 90.0037 13.3402 89.8829 13.3757C89.7645 13.4089 89.6272 13.4384 89.471 13.4645C89.3171 13.4882 89.1668 13.5095 89.02 13.5284C88.8756 13.545 88.7584 13.5592 88.6684 13.571C88.4506 13.5994 88.247 13.6456 88.0576 13.7095C87.8706 13.7711 87.7191 13.8646 87.6031 13.9901C87.4895 14.1132 87.4326 14.2812 87.4326 14.4943C87.4326 14.7855 87.5404 15.0057 87.7558 15.1548C87.9736 15.3016 88.2494 15.375 88.5832 15.375ZM94.3447 16.1136C93.8901 16.1136 93.4888 15.9988 93.1408 15.7692C92.7928 15.5372 92.5206 15.2105 92.3241 14.7891C92.1276 14.3653 92.0293 13.8646 92.0293 13.2869C92.0293 12.714 92.1276 12.2169 92.3241 11.7955C92.5206 11.3741 92.794 11.0485 93.1444 10.8189C93.4948 10.5893 93.8996 10.4744 94.3589 10.4744C94.714 10.4744 94.9945 10.5336 95.2005 10.652C95.4088 10.768 95.5674 10.9006 95.6763 11.0497C95.7876 11.1965 95.874 11.3172 95.9356 11.4119H96.0066V8.72727H96.8447V16H96.035V15.1619H95.9356C95.874 15.2614 95.7864 15.3868 95.6728 15.5384C95.5592 15.6875 95.397 15.8213 95.1863 15.9396C94.9756 16.0556 94.6951 16.1136 94.3447 16.1136ZM94.4583 15.3608C94.7945 15.3608 95.0786 15.2732 95.3106 15.098C95.5426 14.9205 95.719 14.6754 95.8397 14.3629C95.9604 14.0481 96.0208 13.6847 96.0208 13.2727C96.0208 12.8655 95.9616 12.5092 95.8433 12.2038C95.7249 11.8961 95.5497 11.657 95.3177 11.4865C95.0857 11.3137 94.7992 11.2273 94.4583 11.2273C94.1032 11.2273 93.8073 11.3184 93.5705 11.5007C93.3361 11.6806 93.1598 11.9257 93.0414 12.2358C92.9254 12.5436 92.8674 12.8892 92.8674 13.2727C92.8674 13.661 92.9266 14.0137 93.045 14.331C93.1657 14.6458 93.3433 14.8968 93.5776 15.0838C93.8144 15.2685 94.1079 15.3608 94.4583 15.3608ZM103.124 16.1136C102.632 16.1136 102.2 15.9964 101.828 15.7621C101.459 15.5277 101.17 15.1998 100.962 14.7784C100.756 14.357 100.653 13.8646 100.653 13.3011C100.653 12.733 100.756 12.237 100.962 11.8132C101.17 11.3894 101.459 11.0604 101.828 10.826C102.2 10.5916 102.632 10.4744 103.124 10.4744C103.617 10.4744 104.048 10.5916 104.417 10.826C104.789 11.0604 105.077 11.3894 105.283 11.8132C105.492 12.237 105.596 12.733 105.596 13.3011C105.596 13.8646 105.492 14.357 105.283 14.7784C105.077 15.1998 104.789 15.5277 104.417 15.7621C104.048 15.9964 103.617 16.1136 103.124 16.1136ZM103.124 15.3608C103.498 15.3608 103.806 15.2649 104.048 15.0732C104.289 14.8814 104.468 14.6293 104.584 14.3168C104.7 14.0043 104.758 13.6657 104.758 13.3011C104.758 12.9366 104.7 12.5968 104.584 12.282C104.468 11.9671 104.289 11.7126 104.048 11.5185C103.806 11.3243 103.498 11.2273 103.124 11.2273C102.75 11.2273 102.443 11.3243 102.201 11.5185C101.96 11.7126 101.781 11.9671 101.665 12.282C101.549 12.5968 101.491 12.9366 101.491 13.3011C101.491 13.6657 101.549 14.0043 101.665 14.3168C101.781 14.6293 101.96 14.8814 102.201 15.0732C102.443 15.2649 102.75 15.3608 103.124 15.3608ZM107.513 12.7188V16H106.675V10.5455H107.485V11.3977H107.556C107.684 11.1207 107.878 10.8982 108.138 10.7301C108.399 10.5597 108.735 10.4744 109.147 10.4744C109.516 10.4744 109.839 10.5502 110.116 10.7017C110.393 10.8509 110.609 11.0781 110.763 11.3835C110.916 11.6866 110.993 12.0701 110.993 12.5341V16H110.155V12.5909C110.155 12.1624 110.044 11.8286 109.822 11.5895C109.599 11.348 109.294 11.2273 108.905 11.2273C108.638 11.2273 108.399 11.2853 108.188 11.4013C107.98 11.5173 107.815 11.6866 107.694 11.9091C107.574 12.1316 107.513 12.4015 107.513 12.7188ZM117.31 10.5455V11.2557H114.483V10.5455H117.31ZM115.307 9.23864H116.145V14.4375C116.145 14.6742 116.179 14.8518 116.248 14.9702C116.319 15.0862 116.409 15.1643 116.518 15.2045C116.629 15.2424 116.746 15.2614 116.869 15.2614C116.962 15.2614 117.037 15.2566 117.096 15.2472C117.156 15.2353 117.203 15.2259 117.238 15.2188L117.409 15.9716C117.352 15.9929 117.273 16.0142 117.171 16.0355C117.069 16.0592 116.94 16.071 116.784 16.071C116.547 16.071 116.315 16.0201 116.088 15.9183C115.863 15.8165 115.676 15.6615 115.527 15.4531C115.38 15.2448 115.307 14.982 115.307 14.6648V9.23864ZM119.325 12.7188V16H118.487V8.72727H119.325V11.3977H119.396C119.524 11.116 119.716 10.8923 119.972 10.7266C120.23 10.5585 120.573 10.4744 121.002 10.4744C121.373 10.4744 121.699 10.549 121.978 10.6982C122.257 10.8449 122.474 11.071 122.628 11.3764C122.784 11.6795 122.862 12.0653 122.862 12.5341V16H122.024V12.5909C122.024 12.1577 121.912 11.8227 121.687 11.5859C121.464 11.3468 121.155 11.2273 120.76 11.2273C120.485 11.2273 120.239 11.2853 120.021 11.4013C119.806 11.5173 119.636 11.6866 119.51 11.9091C119.387 12.1316 119.325 12.4015 119.325 12.7188ZM126.482 16.1136C125.957 16.1136 125.504 15.9976 125.122 15.7656C124.744 15.5312 124.451 15.2045 124.245 14.7855C124.042 14.3641 123.94 13.8741 123.94 13.3153C123.94 12.7566 124.042 12.2642 124.245 11.8381C124.451 11.4096 124.738 11.0758 125.105 10.8366C125.474 10.5952 125.905 10.4744 126.397 10.4744C126.681 10.4744 126.962 10.5218 127.239 10.6165C127.516 10.7112 127.768 10.8651 127.995 11.0781C128.223 11.2888 128.404 11.5682 128.539 11.9162C128.674 12.2642 128.741 12.6927 128.741 13.2017V13.5568H124.536V12.8324H127.889C127.889 12.5246 127.827 12.25 127.704 12.0085C127.583 11.767 127.411 11.5765 127.186 11.4368C126.963 11.2971 126.7 11.2273 126.397 11.2273C126.063 11.2273 125.775 11.3101 125.531 11.4759C125.289 11.6392 125.103 11.8523 124.973 12.1151C124.843 12.3778 124.778 12.6596 124.778 12.9602V13.4432C124.778 13.8551 124.849 14.2043 124.991 14.4908C125.135 14.7749 125.335 14.9915 125.591 15.1406C125.847 15.2874 126.144 15.3608 126.482 15.3608C126.703 15.3608 126.902 15.33 127.079 15.2685C127.259 15.2045 127.414 15.1098 127.544 14.9844C127.674 14.8565 127.775 14.6979 127.846 14.5085L128.656 14.7358C128.571 15.0104 128.427 15.2519 128.226 15.4602C128.025 15.6662 127.776 15.8272 127.48 15.9432C127.184 16.0568 126.852 16.1136 126.482 16.1136Z" fill="white"/>
<path d="M54.9723 38H52.4411L57.0497 24.9091H59.9773L64.5923 38H62.0611L58.5646 27.5938H58.4624L54.9723 38ZM55.0554 32.8672H61.9588V34.772H55.0554V32.8672ZM66.2323 41.6818V28.1818H68.5079V29.8054H68.6421C68.7614 29.5668 68.9298 29.3132 69.1471 29.0447C69.3644 28.772 69.6584 28.5398 70.0292 28.348C70.3999 28.152 70.8729 28.054 71.4482 28.054C72.2067 28.054 72.8907 28.2479 73.5001 28.6357C74.1137 29.0192 74.5995 29.5881 74.9575 30.3423C75.3197 31.0923 75.5008 32.0128 75.5008 33.1037C75.5008 34.1818 75.3239 35.098 74.9702 35.8523C74.6165 36.6065 74.135 37.1818 73.5256 37.5781C72.9163 37.9744 72.2259 38.1726 71.4546 38.1726C70.8921 38.1726 70.4255 38.0788 70.0548 37.8913C69.684 37.7038 69.3857 37.478 69.1599 37.2138C68.9383 36.9453 68.7657 36.6918 68.6421 36.4531H68.5462V41.6818H66.2323ZM68.5015 33.0909C68.5015 33.7259 68.591 34.282 68.77 34.7592C68.9532 35.2365 69.2153 35.6094 69.5562 35.8778C69.9013 36.142 70.319 36.2741 70.809 36.2741C71.3204 36.2741 71.7486 36.1378 72.0938 35.8651C72.439 35.5881 72.6989 35.2109 72.8736 34.7337C73.0526 34.2521 73.1421 33.7045 73.1421 33.0909C73.1421 32.4815 73.0548 31.9403 72.88 31.4673C72.7053 30.9943 72.4454 30.6236 72.1002 30.3551C71.755 30.0866 71.3246 29.9524 70.809 29.9524C70.3147 29.9524 69.895 30.0824 69.5498 30.3423C69.2046 30.6023 68.9425 30.9666 68.7636 31.4354C68.5888 31.9041 68.5015 32.456 68.5015 33.0909ZM77.5003 41.6818V28.1818H79.7759V29.8054H79.9101C80.0294 29.5668 80.1978 29.3132 80.4151 29.0447C80.6324 28.772 80.9264 28.5398 81.2972 28.348C81.6679 28.152 82.1409 28.054 82.7162 28.054C83.4747 28.054 84.1587 28.2479 84.7681 28.6357C85.3817 29.0192 85.8675 29.5881 86.2255 30.3423C86.5877 31.0923 86.7688 32.0128 86.7688 33.1037C86.7688 34.1818 86.5919 35.098 86.2382 35.8523C85.8845 36.6065 85.403 37.1818 84.7936 37.5781C84.1843 37.9744 83.4939 38.1726 82.7226 38.1726C82.1601 38.1726 81.6935 38.0788 81.3228 37.8913C80.952 37.7038 80.6537 37.478 80.4279 37.2138C80.2063 36.9453 80.0337 36.6918 79.9101 36.4531H79.8142V41.6818H77.5003ZM79.7695 33.0909C79.7695 33.7259 79.859 34.282 80.038 34.7592C80.2212 35.2365 80.4833 35.6094 80.8242 35.8778C81.1693 36.142 81.587 36.2741 82.077 36.2741C82.5884 36.2741 83.0166 36.1378 83.3618 35.8651C83.707 35.5881 83.9669 35.2109 84.1416 34.7337C84.3206 34.2521 84.4101 33.7045 84.4101 33.0909C84.4101 32.4815 84.3228 31.9403 84.148 31.4673C83.9733 30.9943 83.7134 30.6236 83.3682 30.3551C83.023 30.0866 82.5926 29.9524 82.077 29.9524C81.5827 29.9524 81.163 30.0824 80.8178 30.3423C80.4726 30.6023 80.2105 30.9666 80.0316 31.4354C79.8568 31.9041 79.7695 32.456 79.7695 33.0909ZM100.468 28.5078C100.408 27.9496 100.157 27.5149 99.7135 27.2038C99.2746 26.8928 98.7036 26.7372 98.0004 26.7372C97.5061 26.7372 97.0821 26.8118 96.7284 26.9609C96.3747 27.1101 96.1041 27.3125 95.9166 27.5682C95.7291 27.8239 95.6333 28.1158 95.629 28.4439C95.629 28.7166 95.6908 28.9531 95.8144 29.1534C95.9422 29.3537 96.1148 29.5241 96.3321 29.6648C96.5494 29.8011 96.7902 29.9162 97.0544 30.0099C97.3186 30.1037 97.585 30.1825 97.8534 30.2464L99.0807 30.5533C99.575 30.6683 100.05 30.8239 100.506 31.0199C100.966 31.2159 101.378 31.4631 101.74 31.7614C102.106 32.0597 102.396 32.4197 102.609 32.8416C102.822 33.2635 102.929 33.7578 102.929 34.3246C102.929 35.0916 102.733 35.767 102.341 36.3509C101.949 36.9304 101.382 37.3842 100.64 37.7124C99.9031 38.0362 99.0104 38.1982 97.9621 38.1982C96.9436 38.1982 96.0594 38.0405 95.3094 37.7251C94.5637 37.4098 93.9798 36.9496 93.558 36.3445C93.1404 35.7393 92.9145 35.0021 92.8804 34.1328H95.2135C95.2476 34.5888 95.3882 34.968 95.6354 35.2706C95.8825 35.5732 96.2043 35.799 96.6006 35.9482C97.0012 36.0973 97.4486 36.1719 97.9429 36.1719C98.4585 36.1719 98.9102 36.0952 99.298 35.9418C99.6901 35.7841 99.9969 35.5668 100.218 35.2898C100.44 35.0085 100.553 34.6804 100.557 34.3054C100.553 33.9645 100.453 33.6832 100.257 33.4616C100.061 33.2358 99.786 33.0483 99.4323 32.8991C99.0828 32.7457 98.6737 32.6094 98.205 32.4901L96.7156 32.1065C95.6375 31.8295 94.7852 31.4098 94.1588 30.8473C93.5367 30.2805 93.2256 29.5284 93.2256 28.5909C93.2256 27.8196 93.4344 27.1442 93.852 26.5646C94.2739 25.9851 94.847 25.5355 95.5715 25.2159C96.2959 24.892 97.1162 24.7301 98.0324 24.7301C98.9614 24.7301 99.7753 24.892 100.474 25.2159C101.177 25.5355 101.729 25.9808 102.13 26.5518C102.53 27.1186 102.737 27.7706 102.75 28.5078H100.468ZM109.861 28.1818V29.9716H104.217V28.1818H109.861ZM105.611 25.8295H107.925V35.0469C107.925 35.358 107.971 35.5966 108.065 35.7628C108.163 35.9247 108.291 36.0355 108.449 36.0952C108.606 36.1548 108.781 36.1847 108.973 36.1847C109.118 36.1847 109.25 36.174 109.369 36.1527C109.493 36.1314 109.586 36.1122 109.65 36.0952L110.04 37.9041C109.917 37.9467 109.74 37.9936 109.51 38.0447C109.284 38.0959 109.007 38.1257 108.679 38.1342C108.099 38.1513 107.577 38.0639 107.113 37.8722C106.648 37.6761 106.28 37.3736 106.007 36.9645C105.738 36.5554 105.606 36.044 105.611 35.4304V25.8295ZM115.992 38.1918C115.033 38.1918 114.202 37.9808 113.499 37.5589C112.796 37.1371 112.25 36.5469 111.862 35.7884C111.479 35.0298 111.287 34.1435 111.287 33.1293C111.287 32.1151 111.479 31.2266 111.862 30.4638C112.25 29.701 112.796 29.1087 113.499 28.6868C114.202 28.2649 115.033 28.054 115.992 28.054C116.951 28.054 117.781 28.2649 118.485 28.6868C119.188 29.1087 119.731 29.701 120.115 30.4638C120.502 31.2266 120.696 32.1151 120.696 33.1293C120.696 34.1435 120.502 35.0298 120.115 35.7884C119.731 36.5469 119.188 37.1371 118.485 37.5589C117.781 37.9808 116.951 38.1918 115.992 38.1918ZM116.004 36.3381C116.524 36.3381 116.959 36.1953 117.308 35.9098C117.658 35.62 117.918 35.2322 118.088 34.7464C118.263 34.2607 118.35 33.7195 118.35 33.1229C118.35 32.522 118.263 31.9787 118.088 31.4929C117.918 31.0028 117.658 30.6129 117.308 30.3232C116.959 30.0334 116.524 29.8885 116.004 29.8885C115.472 29.8885 115.029 30.0334 114.675 30.3232C114.326 30.6129 114.063 31.0028 113.889 31.4929C113.718 31.9787 113.633 32.522 113.633 33.1229C113.633 33.7195 113.718 34.2607 113.889 34.7464C114.063 35.2322 114.326 35.62 114.675 35.9098C115.029 36.1953 115.472 36.3381 116.004 36.3381ZM122.678 38V28.1818H124.922V29.8182H125.024C125.203 29.2514 125.51 28.8146 125.945 28.5078C126.383 28.1967 126.884 28.0412 127.447 28.0412C127.575 28.0412 127.717 28.0476 127.875 28.0604C128.037 28.0689 128.171 28.0838 128.278 28.1051V30.2337C128.18 30.1996 128.024 30.1697 127.811 30.1442C127.602 30.1143 127.4 30.0994 127.204 30.0994C126.782 30.0994 126.403 30.1911 126.066 30.3743C125.734 30.5533 125.472 30.8026 125.28 31.1222C125.088 31.4418 124.992 31.8104 124.992 32.228V38H122.678ZM133.775 38.1918C132.791 38.1918 131.941 37.9872 131.225 37.5781C130.513 37.1648 129.966 36.581 129.582 35.8267C129.199 35.0682 129.007 34.1754 129.007 33.1484C129.007 32.1385 129.199 31.2521 129.582 30.4893C129.97 29.7223 130.511 29.1257 131.206 28.6996C131.9 28.2692 132.716 28.054 133.654 28.054C134.259 28.054 134.83 28.152 135.367 28.348C135.908 28.5398 136.385 28.8381 136.799 29.2429C137.216 29.6477 137.544 30.1634 137.783 30.7898C138.022 31.4119 138.141 32.1534 138.141 33.0142V33.7237H130.093V32.1641H135.923C135.919 31.7209 135.823 31.3267 135.635 30.9815C135.448 30.6321 135.186 30.3572 134.849 30.157C134.517 29.9567 134.129 29.8565 133.686 29.8565C133.213 29.8565 132.797 29.9716 132.439 30.2017C132.081 30.4276 131.802 30.7259 131.602 31.0966C131.406 31.4631 131.306 31.8658 131.301 32.3047V33.6662C131.301 34.2372 131.406 34.7273 131.615 35.1364C131.824 35.5412 132.115 35.8523 132.49 36.0696C132.865 36.2827 133.304 36.3892 133.807 36.3892C134.144 36.3892 134.449 36.3423 134.721 36.2486C134.994 36.1506 135.23 36.0078 135.431 35.8203C135.631 35.6328 135.782 35.4006 135.885 35.1236L138.045 35.3665C137.909 35.9375 137.649 36.4361 137.265 36.8622C136.886 37.2841 136.4 37.6122 135.808 37.8466C135.216 38.0767 134.538 38.1918 133.775 38.1918Z" fill="white"/>
<path d="M34.7333 35.04C33.4267 36.3067 32 36.1067 30.6267 35.5067C29.1733 34.8933 27.84 34.8667 26.3067 35.5067C24.3867 36.3333 23.3733 36.0933 22.2267 35.04C15.72 28.3333 16.68 18.12 24.0667 17.7467C25.8667 17.84 27.12 18.7333 28.1733 18.8133C29.7467 18.4933 31.2533 17.5733 32.9333 17.6933C34.9467 17.8533 36.4667 18.6533 37.4667 20.0933C33.3067 22.5867 34.2933 28.0667 38.1067 29.6C37.3467 31.6 36.36 33.5867 34.72 35.0533L34.7333 35.04ZM28.04 17.6667C27.84 14.6933 30.2533 12.24 33.0267 12C33.4134 15.44 29.9067 18 28.04 17.6667Z" fill="white"/>
</svg>
