<svg width="40" height="40" viewBox="0 0 40 40" fill="none" xmlns="http://www.w3.org/2000/svg">
<path d="M25.8333 21.6667C31.8164 21.6667 36.6667 20.1743 36.6667 18.3333C36.6667 16.4924 31.8164 15 25.8333 15C19.8502 15 15 16.4924 15 18.3333C15 20.1743 19.8502 21.6667 25.8333 21.6667Z" stroke="#B1F128" stroke-width="2.5"/>
<path d="M36.6667 25.8333C36.6667 27.6743 31.8165 29.1666 25.8333 29.1666C19.8502 29.1666 15 27.6743 15 25.8333" stroke="#B1F128" stroke-width="2.5"/>
<path d="M36.6667 18.3333V32.9999C36.6667 35.0249 31.8165 36.6666 25.8333 36.6666C19.8502 36.6666 15 35.0249 15 32.9999V18.3333" stroke="#B1F128" stroke-width="2.5"/>
<path d="M14.1667 9.99992C20.1498 9.99992 25 8.50753 25 6.66659C25 4.82564 20.1498 3.33325 14.1667 3.33325C8.18362 3.33325 3.33337 4.82564 3.33337 6.66659C3.33337 8.50753 8.18362 9.99992 14.1667 9.99992Z" stroke="#B1F128" stroke-width="2.5"/>
<path d="M10 18.3333C6.84702 17.9497 3.94989 16.9575 3.33337 15M10 26.6667C6.84702 26.283 3.94989 25.2908 3.33337 23.3333" stroke="#B1F128" stroke-width="2.5" stroke-linecap="round"/>
<path d="M10 35.0001C6.84702 34.6164 3.94989 33.6242 3.33337 31.6667V6.66675" stroke="#B1F128" stroke-width="2.5" stroke-linecap="round"/>
<path d="M25 10.0001V6.66675" stroke="#B1F128" stroke-width="2.5" stroke-linecap="round"/>
</svg>
