<svg width="40" height="40" viewBox="0 0 40 40" fill="none" xmlns="http://www.w3.org/2000/svg">
<path d="M19.2307 12.0891C19.589 11.526 20.411 11.526 20.7694 12.0891L21.8062 13.7181C22.9527 15.5196 24.4805 17.0474 26.282 18.1939L27.911 19.2308C28.4742 19.5891 28.4742 20.4111 27.911 20.7694L26.282 21.8063C24.4805 22.9528 22.9527 24.4806 21.8062 26.2821L20.7694 27.9111C20.411 28.4743 19.589 28.4743 19.2307 27.9111L18.1939 26.2821C17.0474 24.4806 15.5195 22.9528 13.7181 21.8063L12.089 20.7694C11.5259 20.4111 11.5259 19.5891 12.089 19.2308L13.7181 18.1939C15.5195 17.0474 17.0474 15.5196 18.1939 13.7181L19.2307 12.0891Z" stroke="#B1F128" stroke-width="2.5" stroke-linejoin="round"/>
<path d="M20 36.6666C29.2047 36.6666 36.6666 29.2047 36.6666 19.9999C36.6666 10.7952 29.2047 3.33325 20 3.33325C10.7952 3.33325 3.33331 10.7952 3.33331 19.9999C3.33331 29.2047 10.7952 36.6666 20 36.6666Z" stroke="#B1F128" stroke-width="2.5" stroke-linejoin="round"/>
</svg>
