<svg width="86" height="33" viewBox="0 0 86 33" fill="none" xmlns="http://www.w3.org/2000/svg">
<g clip-path="url(#clip0_364_141)">
<path d="M13.7131 5.71976L14.0264 2.81067C14.0264 2.81067 20.7934 10.0163 21.3841 15.915C21.9749 21.8138 21.2857 24.5081 14.3844 32.0448C14.3844 32.0448 26.522 17.4278 13.722 5.71976H13.7131Z" fill="#78A627"/>
<path d="M14.5902 26.343L14.2769 29.2521C14.2769 29.2521 7.47414 22.0465 6.88337 16.1477C6.2926 10.249 6.98183 7.56365 13.9189 0.0268555C13.9189 0.0268555 1.7186 14.6439 14.5902 26.343Z" fill="#78A627"/>
<path d="M14.259 29.2343H7.48301L2.18398 21.4469C0.805517 19.4329 0.0804804 17.1056 -7.92104e-05 14.7694C-7.92104e-05 14.6888 -7.92104e-05 14.5993 -7.92104e-05 14.5187C-0.0358835 11.9856 0.689153 9.45245 2.18398 7.26839L7.12497 0.00012207H13.9009L8.95994 7.26839C7.47406 9.45245 6.74902 11.9856 6.77588 14.5187C6.77588 14.5993 6.77588 14.6888 6.77588 14.7694C6.84749 17.1056 7.57252 19.4329 8.95099 21.4469L14.25 29.2343H14.259Z" fill="#B1F128"/>
<path d="M28.2854 17.5262C28.3212 20.0594 27.5961 22.5925 26.1013 24.7766L21.1603 32.0448H14.3843L19.3253 24.7766C20.8112 22.5925 21.5452 20.0594 21.5094 17.5262C21.5094 17.4457 21.5094 17.3561 21.5094 17.2756C21.4378 14.9394 20.7128 12.6121 19.3343 10.5981L14.0263 2.81067H20.8023L26.1013 10.5981C27.4798 12.621 28.2048 14.9394 28.2764 17.2756C28.2764 17.3561 28.2764 17.4457 28.2764 17.5262H28.2854Z" fill="#B1F128"/>
</g>
<path d="M35.1993 15.0224V7.27624H32.2259V5.8342H39.7105V7.27624H36.7371V15.0224H35.1993ZM40.8583 15.0224V5.8342H42.3961V15.0224H40.8583ZM46.2471 15.0224L43.5608 5.8342H45.1752L47.0064 12.4701L48.8313 5.84697L50.4456 5.8342L52.2769 12.4701L54.1017 5.8342H55.7161L53.0362 15.0224H51.5176L49.6353 8.48857L47.7657 15.0224H46.2471ZM56.8848 15.0224V5.8342H58.4226V15.0224H56.8848ZM32.9916 27.0224V17.8342H36.7881C36.8775 17.8342 36.9923 17.8385 37.1327 17.847C37.2731 17.8512 37.4028 17.864 37.5219 17.8853C38.0536 17.9661 38.4918 18.1426 38.8363 18.4148C39.1851 18.6871 39.4425 19.0316 39.6084 19.4485C39.7786 19.8611 39.8636 20.3205 39.8636 20.8267C39.8636 21.3287 39.7786 21.7881 39.6084 22.205C39.4382 22.6176 39.1788 22.96 38.83 23.2323C38.4854 23.5045 38.0494 23.681 37.5219 23.7619C37.4028 23.7789 37.2709 23.7916 37.1263 23.8002C36.9859 23.8087 36.8732 23.8129 36.7881 23.8129H34.5294V27.0224H32.9916ZM34.5294 22.3773H36.7243C36.8094 22.3773 36.9051 22.373 37.0115 22.3645C37.1178 22.356 37.2156 22.339 37.305 22.3134C37.5602 22.2496 37.7601 22.1369 37.9048 21.9753C38.0536 21.8136 38.1579 21.6307 38.2174 21.4265C38.2812 21.2224 38.3131 21.0224 38.3131 20.8267C38.3131 20.6311 38.2812 20.4311 38.2174 20.227C38.1579 20.0185 38.0536 19.8335 37.9048 19.6718C37.7601 19.5102 37.5602 19.3975 37.305 19.3337C37.2156 19.3081 37.1178 19.2933 37.0115 19.289C36.9051 19.2805 36.8094 19.2762 36.7243 19.2762H34.5294V22.3773ZM41.142 27.0224V20.1313H42.501V21.8094L42.3352 21.5924C42.4202 21.3627 42.533 21.1543 42.6733 20.9671C42.818 20.7757 42.9902 20.6183 43.1902 20.495C43.3603 20.3801 43.5475 20.2908 43.7517 20.227C43.9601 20.1589 44.1728 20.1185 44.3897 20.1057C44.6067 20.0887 44.8172 20.0972 45.0214 20.1313V21.5669C44.8172 21.5074 44.5812 21.4882 44.3132 21.5095C44.0494 21.5308 43.8112 21.6052 43.5985 21.7328C43.3858 21.8477 43.2114 21.9944 43.0753 22.1731C42.9434 22.3517 42.8456 22.5559 42.7818 22.7856C42.718 23.0111 42.6861 23.2557 42.6861 23.5194V27.0224H41.142ZM49.158 27.2138C48.4689 27.2138 47.867 27.0586 47.3523 26.748C46.8376 26.4375 46.4377 26.01 46.1527 25.4655C45.8719 24.9168 45.7316 24.2872 45.7316 23.5768C45.7316 22.8537 45.8762 22.2199 46.1655 21.6754C46.4547 21.1309 46.8567 20.7055 47.3714 20.3992C47.8861 20.093 48.4817 19.9398 49.158 19.9398C49.8514 19.9398 50.4554 20.0951 50.9701 20.4056C51.4848 20.7161 51.8847 21.1458 52.1697 21.6945C52.4547 22.239 52.5972 22.8664 52.5972 23.5768C52.5972 24.2915 52.4526 24.9232 52.1633 25.4719C51.8783 26.0164 51.4784 26.4439 50.9637 26.7544C50.449 27.0607 49.8471 27.2138 49.158 27.2138ZM49.158 25.7718C49.7705 25.7718 50.2257 25.5676 50.5235 25.1592C50.8212 24.7509 50.9701 24.2234 50.9701 23.5768C50.9701 22.909 50.8191 22.3773 50.5171 21.9817C50.2151 21.5818 49.762 21.3819 49.158 21.3819C48.7454 21.3819 48.4051 21.4755 48.1371 21.6626C47.8734 21.8455 47.6777 22.1029 47.5501 22.4347C47.4225 22.7622 47.3586 23.1429 47.3586 23.5768C47.3586 24.2447 47.5097 24.7785 47.8117 25.1784C48.118 25.574 48.5667 25.7718 49.158 25.7718ZM58.042 27.0224C57.5869 27.1075 57.1402 27.1436 56.7021 27.1309C56.2682 27.1224 55.879 27.0437 55.5344 26.8948C55.1899 26.7416 54.9282 26.5013 54.7496 26.1738C54.5922 25.876 54.5092 25.5719 54.5007 25.2613C54.4922 24.9508 54.488 24.5999 54.488 24.2085V18.217H56.0193V24.1192C56.0193 24.3957 56.0215 24.6381 56.0257 24.8466C56.0342 25.055 56.0789 25.2252 56.1597 25.357C56.3129 25.6123 56.5574 25.7548 56.8935 25.7845C57.2295 25.8143 57.6124 25.7973 58.042 25.7335V27.0224ZM53.2374 21.3372V20.1313H58.042V21.3372H53.2374ZM62.2185 27.2138C61.5294 27.2138 60.9275 27.0586 60.4127 26.748C59.898 26.4375 59.4982 26.01 59.2132 25.4655C58.9324 24.9168 58.792 24.2872 58.792 23.5768C58.792 22.8537 58.9367 22.2199 59.2259 21.6754C59.5152 21.1309 59.9172 20.7055 60.4319 20.3992C60.9466 20.093 61.5421 19.9398 62.2185 19.9398C62.9118 19.9398 63.5159 20.0951 64.0306 20.4056C64.5453 20.7161 64.9452 21.1458 65.2302 21.6945C65.5152 22.239 65.6577 22.8664 65.6577 23.5768C65.6577 24.2915 65.513 24.9232 65.2238 25.4719C64.9388 26.0164 64.5389 26.4439 64.0242 26.7544C63.5095 27.0607 62.9076 27.2138 62.2185 27.2138ZM62.2185 25.7718C62.831 25.7718 63.2862 25.5676 63.5839 25.1592C63.8817 24.7509 64.0306 24.2234 64.0306 23.5768C64.0306 22.909 63.8796 22.3773 63.5776 21.9817C63.2755 21.5818 62.8225 21.3819 62.2185 21.3819C61.8059 21.3819 61.4656 21.4755 61.1976 21.6626C60.9338 21.8455 60.7382 22.1029 60.6105 22.4347C60.4829 22.7622 60.4191 23.1429 60.4191 23.5768C60.4191 24.2447 60.5701 24.7785 60.8722 25.1784C61.1784 25.574 61.6272 25.7718 62.2185 25.7718ZM70.0561 27.2138C69.3457 27.2138 68.7395 27.0564 68.2376 26.7416C67.7356 26.4226 67.3507 25.9887 67.0827 25.44C66.8189 24.8912 66.6849 24.2702 66.6807 23.5768C66.6849 22.8707 66.8232 22.2454 67.0954 21.7009C67.3719 21.1522 67.7633 20.7225 68.2695 20.412C68.7757 20.0972 69.3776 19.9398 70.0752 19.9398C70.8579 19.9398 71.5194 20.1376 72.0596 20.5332C72.6041 20.9246 72.9593 21.4606 73.1252 22.1412L71.5938 22.5559C71.4747 22.1858 71.2769 21.8987 71.0004 21.6945C70.7239 21.4861 70.4091 21.3819 70.0561 21.3819C69.6562 21.3819 69.3265 21.4776 69.0671 21.669C68.8076 21.8562 68.6162 22.1156 68.4928 22.4474C68.3694 22.7792 68.3078 23.1557 68.3078 23.5768C68.3078 24.2319 68.4545 24.7615 68.748 25.1656C69.0415 25.5697 69.4775 25.7718 70.0561 25.7718C70.4644 25.7718 70.7856 25.6782 71.0195 25.491C71.2578 25.3039 71.4364 25.0338 71.5555 24.6807L73.1252 25.0316C72.9125 25.7335 72.5403 26.2737 72.0086 26.6523C71.4768 27.0267 70.826 27.2138 70.0561 27.2138ZM77.2605 27.2138C76.5713 27.2138 75.9694 27.0586 75.4547 26.748C74.94 26.4375 74.5402 26.01 74.2552 25.4655C73.9744 24.9168 73.834 24.2872 73.834 23.5768C73.834 22.8537 73.9787 22.2199 74.2679 21.6754C74.5572 21.1309 74.9592 20.7055 75.4739 20.3992C75.9886 20.093 76.5841 19.9398 77.2605 19.9398C77.9538 19.9398 78.5579 20.0951 79.0726 20.4056C79.5873 20.7161 79.9871 21.1458 80.2721 21.6945C80.5572 22.239 80.6997 22.8664 80.6997 23.5768C80.6997 24.2915 80.555 24.9232 80.2658 25.4719C79.9808 26.0164 79.5809 26.4439 79.0662 26.7544C78.5515 27.0607 77.9496 27.2138 77.2605 27.2138ZM77.2605 25.7718C77.873 25.7718 78.3282 25.5676 78.6259 25.1592C78.9237 24.7509 79.0726 24.2234 79.0726 23.5768C79.0726 22.909 78.9216 22.3773 78.6195 21.9817C78.3175 21.5818 77.8645 21.3819 77.2605 21.3819C76.8478 21.3819 76.5075 21.4755 76.2395 21.6626C75.9758 21.8455 75.7801 22.1029 75.6525 22.4347C75.5249 22.7622 75.4611 23.1429 75.4611 23.5768C75.4611 24.2447 75.6121 24.7785 75.9141 25.1784C76.2204 25.574 76.6692 25.7718 77.2605 25.7718ZM82.2331 27.0224V17.6428H83.7709V27.0224H82.2331Z" fill="#FBF7FD"/>
<defs>
<clipPath id="clip0_364_141">
<rect width="28.2854" height="32.0448" fill="white"/>
</clipPath>
</defs>
</svg>
