<svg width="40" height="40" viewBox="0 0 40 40" fill="none" xmlns="http://www.w3.org/2000/svg">
<path d="M24.1663 17.4999C24.1663 19.8011 22.3008 21.6666 19.9997 21.6666C17.6983 21.6666 15.8329 19.8011 15.8329 17.4999C15.8329 15.1987 17.6983 13.3333 19.9997 13.3333C22.3008 13.3333 24.1663 15.1987 24.1663 17.4999Z" stroke="#B1F128" stroke-width="2.5" stroke-linecap="round" stroke-linejoin="round"/>
<path d="M29.1666 27.7639C30.5736 27.8583 31.7826 28.0249 32.7936 28.2158C34.6198 28.5606 36.6666 27.1623 36.6666 25.3038V9.045C36.6666 8.09807 36.126 7.24079 35.2215 6.96045C33.6505 6.4736 30.799 5.83325 26.6666 5.83325C19.0348 5.83325 16.9945 8.62904 6.46328 6.53927C4.86796 6.22269 3.33331 7.40877 3.33331 9.03519V25.7303C3.33331 26.8774 4.12106 27.8849 5.24131 28.1319C7.41001 28.6103 9.23981 28.8941 10.8333 29.0394" stroke="#B1F128" stroke-width="2.5" stroke-linecap="round" stroke-linejoin="round"/>
<path d="M3.33331 12.5001C6.58553 12.5001 9.50803 9.84186 9.88166 7.09036M30.8341 6.66675C30.8341 10.0661 33.7758 13.2817 36.6666 13.2817M36.6666 22.5001C33.5015 22.5001 30.4335 24.6837 30.17 27.6639M10.0008 28.3269C10.0008 24.6451 7.01603 21.6602 3.33413 21.6602" stroke="#B1F128" stroke-width="2.5" stroke-linecap="round" stroke-linejoin="round"/>
<path d="M20 27.5V34.1667M25 27.5V30.8333M15 27.5V30.8333" stroke="#B1F128" stroke-width="2.5" stroke-linecap="round" stroke-linejoin="round"/>
</svg>
