<svg width="40" height="40" viewBox="0 0 40 40" fill="none" xmlns="http://www.w3.org/2000/svg">
<path d="M28.5483 16.5577L25.9322 11.2338C23.3438 5.96627 22.0495 3.33252 20 3.33252C17.9505 3.33252 16.6562 5.96627 14.0678 11.2338L11.4516 16.5577C10.3784 18.7418 9.84176 19.8338 10.0409 20.9419C10.2401 22.0503 11.1218 22.8783 12.8852 24.5346L15.5014 26.9918C17.636 28.9968 18.7033 29.9993 20 29.9993C21.2967 29.9993 22.364 28.9968 24.4987 26.9918L27.1148 24.5346C28.8782 22.8783 29.7598 22.0503 29.959 20.9419C30.1582 19.8338 29.6217 18.7418 28.5483 16.5577Z" stroke="#B1F128" stroke-width="2.5" stroke-linecap="round" stroke-linejoin="round"/>
<path d="M28.5483 23.2244C29.6217 25.4084 30.1582 26.5004 29.959 27.6085C29.7598 28.7169 28.8782 29.5449 27.1148 31.2012L24.4987 33.6584C22.364 35.6634 21.2967 36.6659 20 36.6659C18.7033 36.6659 17.636 35.6634 15.5014 33.6584L12.8852 31.2012C11.1218 29.5449 10.2401 28.7169 10.0409 27.6085C9.84176 26.5004 10.3784 25.4084 11.4516 23.2244" stroke="#B1F128" stroke-width="2.5" stroke-linecap="round" stroke-linejoin="round"/>
<path d="M27.5 15.8333L20 23.3333L12.5 15.8333" stroke="#B1F128" stroke-width="2.5" stroke-linecap="round" stroke-linejoin="round"/>
</svg>
