<svg width="40" height="40" viewBox="0 0 40 40" fill="none" xmlns="http://www.w3.org/2000/svg">
<path d="M9.16659 17.5001C9.37017 17.5001 9.55944 17.4059 9.93795 17.2174L12.9804 15.7028C14.3268 15.0325 14.9999 14.6974 14.9999 14.1667V7.50008M9.16659 17.5001C8.96299 17.5001 8.77374 17.4059 8.39522 17.2174L5.35272 15.7028C4.0064 15.0325 3.33325 14.6974 3.33325 14.1667V7.50008M9.16659 17.5001V10.8334M14.9999 7.50008C14.9999 6.9694 14.3268 6.63428 12.9804 5.96405L9.93795 4.4494C9.55944 4.26096 9.37017 4.16675 9.16659 4.16675C8.96299 4.16675 8.77374 4.26096 8.39522 4.4494L5.35272 5.96405C4.0064 6.63428 3.33325 6.9694 3.33325 7.50008M14.9999 7.50008C14.9999 8.03076 14.3268 8.36588 12.9804 9.03611L9.93795 10.5508C9.55944 10.7392 9.37017 10.8334 9.16659 10.8334M3.33325 7.50008C3.33325 8.03076 4.0064 8.36588 5.35272 9.03611L8.39522 10.5508C8.77374 10.7392 8.96299 10.8334 9.16659 10.8334" stroke="#B1F128" stroke-width="2.5" stroke-linejoin="round"/>
<path d="M30.8332 17.5001C31.0368 17.5001 31.226 17.4059 31.6045 17.2174L34.647 15.7028C35.9933 15.0325 36.6665 14.6974 36.6665 14.1667V7.50008M30.8332 17.5001C30.6297 17.5001 30.4403 17.4059 30.0618 17.2174L27.0193 15.7028C25.673 15.0325 24.9998 14.6974 24.9998 14.1667V7.50008M30.8332 17.5001V10.8334M36.6665 7.50008C36.6665 6.9694 35.9933 6.63428 34.647 5.96405L31.6045 4.4494C31.226 4.26096 31.0368 4.16675 30.8332 4.16675C30.6297 4.16675 30.4403 4.26096 30.0618 4.4494L27.0193 5.96405C25.673 6.63428 24.9998 6.9694 24.9998 7.50008M36.6665 7.50008C36.6665 8.03076 35.9933 8.36588 34.647 9.03611L31.6045 10.5508C31.226 10.7392 31.0368 10.8334 30.8332 10.8334M24.9998 7.50008C24.9998 8.03076 25.673 8.36588 27.0193 9.03611L30.0618 10.5508C30.4403 10.7392 30.6297 10.8334 30.8332 10.8334" stroke="#B1F128" stroke-width="2.5" stroke-linejoin="round"/>
<path d="M19.1664 10.8333H20.8331" stroke="#B1F128" stroke-width="2.5" stroke-linecap="round"/>
<path d="M3.33325 20.8333V26.6666C3.33325 29.0074 3.33325 30.1778 3.89502 31.0184C4.13822 31.3824 4.45072 31.6949 4.81469 31.9381C5.65542 32.4999 6.82582 32.4999 9.16659 32.4999" stroke="#B1F128" stroke-width="2.5" stroke-linecap="round"/>
<path d="M36.6668 20.8333V26.6666C36.6668 29.0074 36.6668 30.1778 36.105 31.0184C35.8618 31.3824 35.5493 31.6949 35.1853 31.9381C34.3446 32.4999 33.174 32.4999 30.8331 32.4999" stroke="#B1F128" stroke-width="2.5" stroke-linecap="round"/>
<path d="M17.0832 28.2185C17.3752 28.2143 17.6978 28.2143 18.0555 28.2143H21.9443C22.3018 28.2143 22.6245 28.2143 22.9165 28.2185M17.0832 28.2185C15.8779 28.2355 15.1945 28.3232 14.7361 28.7722C14.1666 29.33 14.1666 30.228 14.1666 32.0238C14.1666 33.8197 14.1666 34.7175 14.7361 35.2755C15.3056 35.8333 16.2222 35.8333 18.0555 35.8333H21.9443C23.7775 35.8333 24.6942 35.8333 25.2637 35.2755C25.8332 34.7175 25.8332 33.8197 25.8332 32.0238C25.8332 30.228 25.8332 29.33 25.2637 28.7722C24.8053 28.3232 24.1218 28.2355 22.9165 28.2185M17.0832 28.2185V25.3572C17.0832 23.7792 18.389 22.5 19.9998 22.5C21.6107 22.5 22.9165 23.7792 22.9165 25.3572V28.2185" stroke="#B1F128" stroke-width="2.5" stroke-linecap="round"/>
</svg>
