<svg width="867" height="304" viewBox="0 0 867 304" fill="none" xmlns="http://www.w3.org/2000/svg">
<g clip-path="url(#clip0_515_1879)">
<path d="M0 0H867V280C867 293.255 856.255 304 843 304H0V0Z" fill="url(#paint0_linear_515_1879)"/>
<g opacity="0.25" clip-path="url(#clip1_515_1879)">
<g clip-path="url(#clip2_515_1879)">
<g clip-path="url(#clip3_515_1879)">
<g clip-path="url(#clip4_515_1879)">
<path fill-rule="evenodd" clip-rule="evenodd" d="M359.706 221.68C369.403 213.938 375.243 200.104 375.243 181.322C375.243 138.921 345.476 87.3619 308.755 66.1613C289.426 55.0013 272.023 54.4783 259.874 62.6708L259.871 62.6652L259.629 62.8376C259.317 63.0524 259.008 63.273 258.703 63.4994L246.984 71.8754L248.879 74.9483C244.643 82.6049 242.267 92.5706 242.267 104.548C242.267 146.95 272.035 198.509 308.755 219.709C321.505 227.071 333.417 229.804 343.536 228.461L345.598 231.806L359.742 221.738L359.706 221.68Z" fill="#B0F127"/>
<path d="M359.706 221.68L359.385 221.278L359.026 221.565L359.27 221.954L359.706 221.68ZM259.874 62.6709L259.439 62.9443L259.721 63.394L260.161 63.0971L259.874 62.6709ZM259.871 62.6653L260.306 62.3919L260.016 61.9298L259.572 62.2471L259.871 62.6653ZM259.629 62.8377L259.921 63.2612L259.928 63.2558L259.629 62.8377ZM258.703 63.4995L259.002 63.9178L259.01 63.9122L258.703 63.4995ZM246.984 71.8755L246.686 71.4573L246.295 71.7365L246.547 72.1452L246.984 71.8755ZM248.879 74.9484L249.329 75.1973L249.474 74.9343L249.317 74.6787L248.879 74.9484ZM343.536 228.461L343.972 228.191L343.798 227.908L343.468 227.951L343.536 228.461ZM345.598 231.806L345.16 232.075L345.449 232.543L345.896 232.224L345.598 231.806ZM359.742 221.738L360.04 222.157L360.434 221.876L360.176 221.465L359.742 221.738ZM374.729 181.322C374.729 200.007 368.92 213.666 359.385 221.278L360.025 222.082C369.886 214.21 375.757 200.201 375.757 181.322H374.729ZM308.498 66.6066C326.762 77.1512 343.326 95.2661 355.324 116.049C367.324 136.831 374.729 160.233 374.729 181.322H375.757C375.757 160.01 368.28 136.432 356.215 115.535C344.149 94.6373 327.469 76.3724 309.012 65.7163L308.498 66.6066ZM260.161 63.0971C272.088 55.0542 289.267 55.5035 308.498 66.6066L309.012 65.7163C289.584 54.4995 271.957 53.9027 259.587 62.2448L260.161 63.0971ZM260.309 62.3976L260.306 62.3919L259.435 62.9386L259.439 62.9443L260.309 62.3976ZM259.572 62.2471L259.33 62.4195L259.928 63.2558L260.169 63.0835L259.572 62.2471ZM259.01 63.9122C259.31 63.6894 259.614 63.4725 259.921 63.2612L259.338 62.4142C259.021 62.6325 258.707 62.8567 258.397 63.0867L259.01 63.9122ZM258.404 63.0813L246.686 71.4573L247.283 72.2936L259.002 63.9178L258.404 63.0813ZM246.547 72.1452L248.442 75.2182L249.317 74.6787L247.422 71.6057L246.547 72.1452ZM242.781 104.548C242.781 92.6358 245.144 82.7606 249.329 75.1973L248.429 74.6995C244.141 82.4495 241.753 92.5056 241.753 104.548H242.781ZM309.012 219.264C290.749 208.72 274.185 190.605 262.186 169.822C250.187 149.04 242.781 125.638 242.781 104.548H241.753C241.753 125.86 249.231 149.438 261.296 170.336C273.361 191.234 290.042 209.499 308.498 220.155L309.012 219.264ZM343.468 227.951C333.492 229.275 321.694 226.587 309.012 219.264L308.498 220.155C321.316 227.555 333.341 230.333 343.602 228.971L343.468 227.951ZM343.098 228.73L345.16 232.075L346.036 231.536L343.972 228.191L343.098 228.73ZM345.896 232.224L360.04 222.157L359.443 221.319L345.3 231.387L345.896 232.224ZM360.176 221.465L360.14 221.407L359.27 221.954L359.306 222.011L360.176 221.465Z" fill="#060606"/>
<mask id="mask0_515_1879" style="mask-type:alpha" maskUnits="userSpaceOnUse" x="241" y="56" width="135" height="177">
<path fill-rule="evenodd" clip-rule="evenodd" d="M359.706 221.68C369.403 213.938 375.243 200.104 375.243 181.322C375.243 138.921 345.476 87.3619 308.755 66.1613C289.426 55.0013 272.023 54.4783 259.874 62.6708L259.871 62.6652L259.629 62.8376C259.317 63.0524 259.008 63.273 258.703 63.4994L246.984 71.8754L248.879 74.9483C244.643 82.6049 242.267 92.5706 242.267 104.548C242.267 146.95 272.035 198.509 308.755 219.709C321.505 227.071 333.417 229.804 343.536 228.461L345.598 231.806L359.742 221.738L359.706 221.68Z" fill="#B0F127"/>
<path d="M359.706 221.68L359.385 221.278L359.026 221.565L359.27 221.954L359.706 221.68ZM259.874 62.6709L259.439 62.9443L259.721 63.394L260.161 63.0971L259.874 62.6709ZM259.871 62.6653L260.306 62.3919L260.016 61.9298L259.572 62.2471L259.871 62.6653ZM259.629 62.8377L259.921 63.2612L259.928 63.2558L259.629 62.8377ZM258.703 63.4995L259.002 63.9178L259.01 63.9122L258.703 63.4995ZM246.984 71.8755L246.686 71.4573L246.295 71.7365L246.547 72.1452L246.984 71.8755ZM248.879 74.9484L249.329 75.1973L249.474 74.9343L249.317 74.6787L248.879 74.9484ZM343.536 228.461L343.972 228.191L343.798 227.908L343.468 227.951L343.536 228.461ZM345.598 231.806L345.16 232.075L345.449 232.543L345.896 232.224L345.598 231.806ZM359.742 221.738L360.04 222.157L360.434 221.876L360.176 221.465L359.742 221.738ZM374.729 181.322C374.729 200.007 368.92 213.666 359.385 221.278L360.025 222.082C369.886 214.21 375.757 200.201 375.757 181.322H374.729ZM308.498 66.6066C326.762 77.1512 343.326 95.2661 355.324 116.049C367.324 136.831 374.729 160.233 374.729 181.322H375.757C375.757 160.01 368.28 136.432 356.215 115.535C344.149 94.6373 327.469 76.3724 309.012 65.7163L308.498 66.6066ZM260.161 63.0971C272.088 55.0542 289.267 55.5035 308.498 66.6066L309.012 65.7163C289.584 54.4995 271.957 53.9027 259.587 62.2448L260.161 63.0971ZM260.309 62.3976L260.306 62.3919L259.435 62.9386L259.439 62.9443L260.309 62.3976ZM259.572 62.2471L259.33 62.4195L259.928 63.2558L260.169 63.0835L259.572 62.2471ZM259.01 63.9122C259.31 63.6894 259.614 63.4725 259.921 63.2612L259.338 62.4142C259.021 62.6325 258.707 62.8567 258.397 63.0867L259.01 63.9122ZM258.404 63.0813L246.686 71.4573L247.283 72.2936L259.002 63.9178L258.404 63.0813ZM246.547 72.1452L248.442 75.2182L249.317 74.6787L247.422 71.6057L246.547 72.1452ZM242.781 104.548C242.781 92.6358 245.144 82.7606 249.329 75.1973L248.429 74.6995C244.141 82.4495 241.753 92.5056 241.753 104.548H242.781ZM309.012 219.264C290.749 208.72 274.185 190.605 262.186 169.822C250.187 149.04 242.781 125.638 242.781 104.548H241.753C241.753 125.86 249.231 149.438 261.296 170.336C273.361 191.234 290.042 209.499 308.498 220.155L309.012 219.264ZM343.468 227.951C333.492 229.275 321.694 226.587 309.012 219.264L308.498 220.155C321.316 227.555 333.341 230.333 343.602 228.971L343.468 227.951ZM343.098 228.73L345.16 232.075L346.036 231.536L343.972 228.191L343.098 228.73ZM345.896 232.224L360.04 222.157L359.443 221.319L345.3 231.387L345.896 232.224ZM360.176 221.465L360.14 221.407L359.27 221.954L359.306 222.011L360.176 221.465Z" fill="#060606"/>
</mask>
<g mask="url(#mask0_515_1879)">
<path d="M454.657 138.953L314.007 220.157L314.007 289.989L454.657 208.785L454.657 138.953Z" fill="#B0F127"/>
</g>
<path d="M359.706 221.68L359.385 221.278L359.026 221.565L359.27 221.954L359.706 221.68ZM259.874 62.6709L259.439 62.9443L259.721 63.394L260.161 63.0971L259.874 62.6709ZM259.871 62.6653L260.306 62.3919L260.016 61.9298L259.572 62.2471L259.871 62.6653ZM259.629 62.8377L259.921 63.2612L259.928 63.2558L259.629 62.8377ZM258.703 63.4995L259.002 63.9178L259.01 63.9122L258.703 63.4995ZM246.984 71.8755L246.686 71.4573L246.295 71.7365L246.547 72.1452L246.984 71.8755ZM248.879 74.9484L249.329 75.1973L249.474 74.9343L249.317 74.6787L248.879 74.9484ZM343.536 228.461L343.972 228.191L343.798 227.908L343.468 227.951L343.536 228.461ZM345.598 231.806L345.16 232.075L345.449 232.543L345.896 232.224L345.598 231.806ZM359.742 221.738L360.04 222.157L360.434 221.876L360.176 221.465L359.742 221.738ZM374.729 181.322C374.729 200.007 368.92 213.666 359.385 221.278L360.025 222.082C369.886 214.21 375.757 200.201 375.757 181.322H374.729ZM308.498 66.6066C326.762 77.1512 343.326 95.2661 355.324 116.049C367.324 136.831 374.729 160.233 374.729 181.322H375.757C375.757 160.01 368.28 136.432 356.215 115.535C344.149 94.6373 327.469 76.3724 309.012 65.7163L308.498 66.6066ZM260.161 63.0971C272.088 55.0542 289.267 55.5035 308.498 66.6066L309.012 65.7163C289.584 54.4995 271.957 53.9027 259.587 62.2448L260.161 63.0971ZM260.309 62.3976L260.306 62.3919L259.435 62.9386L259.439 62.9443L260.309 62.3976ZM259.572 62.2471L259.33 62.4195L259.928 63.2558L260.169 63.0835L259.572 62.2471ZM259.01 63.9122C259.31 63.6894 259.614 63.4725 259.921 63.2612L259.338 62.4142C259.021 62.6325 258.707 62.8567 258.397 63.0867L259.01 63.9122ZM258.404 63.0813L246.686 71.4573L247.283 72.2936L259.002 63.9178L258.404 63.0813ZM246.547 72.1452L248.442 75.2182L249.317 74.6787L247.422 71.6057L246.547 72.1452ZM242.781 104.548C242.781 92.6358 245.144 82.7606 249.329 75.1973L248.429 74.6995C244.141 82.4495 241.753 92.5056 241.753 104.548H242.781ZM309.012 219.264C290.749 208.72 274.185 190.605 262.186 169.822C250.187 149.04 242.781 125.638 242.781 104.548H241.753C241.753 125.86 249.231 149.438 261.296 170.336C273.361 191.234 290.042 209.499 308.498 220.155L309.012 219.264ZM343.468 227.951C333.492 229.275 321.694 226.587 309.012 219.264L308.498 220.155C321.316 227.555 333.341 230.333 343.602 228.971L343.468 227.951ZM343.098 228.73L345.16 232.075L346.036 231.536L343.972 228.191L343.098 228.73ZM345.896 232.224L360.04 222.157L359.443 221.319L345.3 231.387L345.896 232.224ZM360.176 221.465L360.14 221.407L359.27 221.954L359.306 222.011L360.176 221.465Z" fill="#060606"/>
<path d="M296.516 228.43C333.237 249.63 363.004 232.444 363.004 190.043C363.004 147.641 333.237 96.0822 296.516 74.8816C259.796 53.6811 230.028 70.8675 230.028 113.269C230.028 155.67 259.796 207.229 296.516 228.43Z" fill="#498F00" stroke="#060606" stroke-width="1.02797"/>
<mask id="mask1_515_1879" style="mask-type:alpha" maskUnits="userSpaceOnUse" x="229" y="65" width="135" height="174">
<path d="M296.516 228.43C333.237 249.63 363.004 232.444 363.004 190.043C363.004 147.641 333.237 96.0822 296.516 74.8816C259.796 53.6811 230.028 70.8675 230.028 113.269C230.028 155.67 259.796 207.229 296.516 228.43Z" fill="#B0F127" stroke="#060606" stroke-width="1.02797"/>
</mask>
<g mask="url(#mask1_515_1879)">
<path d="M318.08 158.642C319.137 151.095 313.759 143.605 306.405 136.434L308.79 126.762L302.965 121.723L300.643 131.14C299.112 129.816 297.539 128.492 295.976 127.178L298.315 117.7L292.494 112.663L290.107 122.33C288.839 121.265 287.595 120.217 286.388 119.173L286.394 119.142L278.361 112.188L276.812 118.477C276.812 118.477 281.134 122.116 281.042 122.134C283.401 124.176 283.828 126.225 283.756 127.613L281.039 138.631C281.202 138.773 281.412 138.964 281.645 139.205C281.45 139.038 281.243 138.857 281.029 138.674L277.22 154.107C276.931 154.768 276.2 155.587 274.551 154.164C274.609 154.295 270.317 150.5 270.317 150.5L267.426 156.529L275.005 163.086C276.415 164.309 277.797 165.534 279.158 166.721L276.747 176.506L282.565 181.541L284.952 171.862C286.542 173.278 288.085 174.629 289.594 175.933L287.215 185.564L293.04 190.603L295.45 180.841C305.383 188.746 312.851 192.182 315.995 183.624C318.528 176.735 315.869 170.382 310.643 164.222C314.449 165.407 317.315 164.171 318.08 158.642ZM304.772 172.507C302.972 179.82 290.794 168.274 286.845 164.862L290.044 151.903C293.992 155.32 306.653 164.882 304.772 172.507ZM306.574 151.877C304.931 158.526 294.795 148.815 291.507 145.97L294.407 134.216C297.695 137.061 308.284 144.941 306.574 151.877Z" fill="#051401"/>
<path d="M296.572 228.435C333.292 249.636 363.06 232.449 363.06 190.048C363.06 147.647 333.292 96.0875 296.572 74.887C259.851 53.6864 230.083 70.8729 230.083 113.274C230.083 155.675 259.851 207.234 296.572 228.435Z" stroke="#060606" stroke-width="1.02797"/>
</g>
</g>
</g>
</g>
</g>
<g clip-path="url(#clip5_515_1879)">
<g clip-path="url(#clip6_515_1879)">
<g clip-path="url(#clip7_515_1879)">
<g clip-path="url(#clip8_515_1879)">
<path fill-rule="evenodd" clip-rule="evenodd" d="M745.961 296.886C763.839 282.614 774.605 257.11 774.605 222.484C774.605 144.317 719.729 49.2652 652.032 10.1811C616.397 -10.3927 584.314 -11.357 561.917 3.74627L561.911 3.73585L561.466 4.05366C560.891 4.44973 560.322 4.85642 559.759 5.27373L538.155 20.7152L541.648 26.3803C533.838 40.4956 529.459 58.8677 529.459 80.9491C529.458 159.117 584.337 254.168 652.032 293.253C675.537 306.824 697.497 311.863 716.151 309.386L719.952 315.553L746.027 296.992L745.961 296.886Z" fill="#B0F127"/>
<path d="M745.961 296.886L745.369 296.145L744.708 296.674L745.157 297.39L745.961 296.886ZM561.918 3.74659L561.115 4.2505L561.636 5.07961L562.447 4.5323L561.918 3.74659ZM561.911 3.73617L562.714 3.23226L562.179 2.38022L561.36 2.96524L561.911 3.73617ZM561.466 4.05398L562.004 4.83476L562.017 4.82491L561.466 4.05398ZM559.759 5.27405L560.31 6.04516L560.324 6.03493L559.759 5.27405ZM538.155 20.7155L537.604 19.9446L536.884 20.4593L537.348 21.2128L538.155 20.7155ZM541.648 26.3806L542.477 26.8394L542.745 26.3546L542.455 25.8833L541.648 26.3806ZM716.151 309.386L716.956 308.89L716.634 308.367L716.026 308.446L716.151 309.386ZM719.952 315.553L719.145 316.049L719.677 316.912L720.502 316.324L719.952 315.553ZM746.027 296.992L746.577 297.765L747.304 297.246L746.829 296.49L746.027 296.992ZM773.658 222.484C773.658 256.932 762.948 282.112 745.369 296.145L746.55 297.627C764.728 283.114 775.553 257.288 775.553 222.484H773.658ZM651.558 11.0022C685.228 30.4414 715.764 63.837 737.884 102.15C760.005 140.464 773.658 183.606 773.658 222.484H775.553C775.553 183.195 761.768 139.728 739.525 101.203C717.282 62.6777 686.532 29.0057 652.506 9.36084L651.558 11.0022ZM562.447 4.5323C584.435 -10.2952 616.105 -9.46683 651.558 11.0022L652.506 9.36084C616.69 -11.3178 584.193 -12.4179 561.388 2.96107L562.447 4.5323ZM562.72 3.24268L562.714 3.23226L561.109 4.24008L561.115 4.2505L562.72 3.24268ZM561.36 2.96524L560.915 3.28305L562.017 4.82491L562.462 4.5071L561.36 2.96524ZM560.324 6.03493C560.877 5.62426 561.437 5.2244 562.004 4.83476L560.929 3.27339C560.344 3.67572 559.766 4.08904 559.195 4.51316L560.324 6.03493ZM559.208 4.50312L537.604 19.9446L538.706 21.4863L560.31 6.04516L559.208 4.50312ZM537.348 21.2128L540.842 26.8779L542.455 25.8833L538.962 20.2181L537.348 21.2128ZM530.406 80.9494C530.406 58.988 534.762 40.7826 542.477 26.8394L540.819 25.9218C532.914 40.2092 528.511 58.7478 528.511 80.9494H530.406ZM652.506 292.433C618.836 272.993 588.301 239.597 566.18 201.284C544.06 162.97 530.406 119.828 530.406 80.9494H528.511C528.511 120.239 542.296 163.706 564.539 202.231C586.782 240.757 617.533 274.429 651.558 294.074L652.506 292.433ZM716.026 308.446C697.635 310.887 675.886 305.931 652.506 292.433L651.558 294.074C675.188 307.717 697.357 312.837 716.274 310.326L716.026 308.446ZM715.343 309.883L719.145 316.049L720.76 315.056L716.956 308.89L715.343 309.883ZM720.502 316.324L746.577 297.765L745.477 296.221L719.403 314.782L720.502 316.324ZM746.829 296.49L746.762 296.382L745.157 297.39L745.223 297.496L746.829 296.49Z" fill="#060606"/>
<mask id="mask2_515_1879" style="mask-type:alpha" maskUnits="userSpaceOnUse" x="528" y="-8" width="248" height="325">
<path fill-rule="evenodd" clip-rule="evenodd" d="M745.961 296.886C763.839 282.614 774.605 257.11 774.605 222.484C774.605 144.317 719.729 49.2652 652.032 10.1811C616.397 -10.3927 584.314 -11.357 561.917 3.74627L561.911 3.73585L561.466 4.05366C560.891 4.44973 560.322 4.85642 559.759 5.27373L538.155 20.7152L541.648 26.3803C533.838 40.4956 529.459 58.8677 529.459 80.9491C529.458 159.117 584.337 254.168 652.032 293.253C675.537 306.824 697.497 311.863 716.151 309.386L719.952 315.553L746.027 296.992L745.961 296.886Z" fill="#B0F127"/>
<path d="M745.961 296.886L745.369 296.145L744.708 296.674L745.157 297.39L745.961 296.886ZM561.918 3.74659L561.115 4.2505L561.636 5.07961L562.447 4.5323L561.918 3.74659ZM561.911 3.73617L562.714 3.23226L562.179 2.38022L561.36 2.96524L561.911 3.73617ZM561.466 4.05398L562.004 4.83476L562.017 4.82491L561.466 4.05398ZM559.759 5.27405L560.31 6.04516L560.324 6.03493L559.759 5.27405ZM538.155 20.7155L537.604 19.9446L536.884 20.4593L537.348 21.2128L538.155 20.7155ZM541.648 26.3806L542.477 26.8394L542.745 26.3546L542.455 25.8833L541.648 26.3806ZM716.151 309.386L716.956 308.89L716.634 308.367L716.026 308.446L716.151 309.386ZM719.952 315.553L719.145 316.049L719.677 316.912L720.502 316.324L719.952 315.553ZM746.027 296.992L746.577 297.765L747.304 297.246L746.829 296.49L746.027 296.992ZM773.658 222.484C773.658 256.932 762.948 282.112 745.369 296.145L746.55 297.627C764.728 283.114 775.553 257.288 775.553 222.484H773.658ZM651.558 11.0022C685.228 30.4414 715.764 63.837 737.884 102.15C760.005 140.464 773.658 183.606 773.658 222.484H775.553C775.553 183.195 761.768 139.728 739.525 101.203C717.282 62.6777 686.532 29.0057 652.506 9.36084L651.558 11.0022ZM562.447 4.5323C584.435 -10.2952 616.105 -9.46683 651.558 11.0022L652.506 9.36084C616.69 -11.3178 584.193 -12.4179 561.388 2.96107L562.447 4.5323ZM562.72 3.24268L562.714 3.23226L561.109 4.24008L561.115 4.2505L562.72 3.24268ZM561.36 2.96524L560.915 3.28305L562.017 4.82491L562.462 4.5071L561.36 2.96524ZM560.324 6.03493C560.877 5.62426 561.437 5.2244 562.004 4.83476L560.929 3.27339C560.344 3.67572 559.766 4.08904 559.195 4.51316L560.324 6.03493ZM559.208 4.50312L537.604 19.9446L538.706 21.4863L560.31 6.04516L559.208 4.50312ZM537.348 21.2128L540.842 26.8779L542.455 25.8833L538.962 20.2181L537.348 21.2128ZM530.406 80.9494C530.406 58.988 534.762 40.7826 542.477 26.8394L540.819 25.9218C532.914 40.2092 528.511 58.7478 528.511 80.9494H530.406ZM652.506 292.433C618.836 272.993 588.301 239.597 566.18 201.284C544.06 162.97 530.406 119.828 530.406 80.9494H528.511C528.511 120.239 542.296 163.706 564.539 202.231C586.782 240.757 617.533 274.429 651.558 294.074L652.506 292.433ZM716.026 308.446C697.635 310.887 675.886 305.931 652.506 292.433L651.558 294.074C675.188 307.717 697.357 312.837 716.274 310.326L716.026 308.446ZM715.343 309.883L719.145 316.049L720.76 315.056L716.956 308.89L715.343 309.883ZM720.502 316.324L746.577 297.765L745.477 296.221L719.403 314.782L720.502 316.324ZM746.829 296.49L746.762 296.382L745.157 297.39L745.223 297.496L746.829 296.49Z" fill="#060606"/>
</mask>
<g mask="url(#mask2_515_1879)">
<path d="M921.007 144.374L661.714 294.077L661.714 422.816L921.007 273.113L921.007 144.374Z" fill="#B0F127"/>
</g>
<path d="M745.961 296.886L745.369 296.145L744.708 296.674L745.157 297.39L745.961 296.886ZM561.918 3.74659L561.115 4.2505L561.636 5.07961L562.447 4.5323L561.918 3.74659ZM561.911 3.73617L562.714 3.23226L562.179 2.38022L561.36 2.96524L561.911 3.73617ZM561.466 4.05398L562.004 4.83476L562.017 4.82491L561.466 4.05398ZM559.759 5.27405L560.31 6.04516L560.324 6.03493L559.759 5.27405ZM538.155 20.7155L537.604 19.9446L536.884 20.4593L537.348 21.2128L538.155 20.7155ZM541.648 26.3806L542.477 26.8394L542.745 26.3546L542.455 25.8833L541.648 26.3806ZM716.151 309.386L716.956 308.89L716.634 308.367L716.026 308.446L716.151 309.386ZM719.952 315.553L719.145 316.049L719.677 316.912L720.502 316.324L719.952 315.553ZM746.027 296.992L746.577 297.765L747.304 297.246L746.829 296.49L746.027 296.992ZM773.658 222.484C773.658 256.932 762.948 282.112 745.369 296.145L746.55 297.627C764.728 283.114 775.553 257.288 775.553 222.484H773.658ZM651.558 11.0022C685.228 30.4414 715.764 63.837 737.884 102.15C760.005 140.464 773.658 183.606 773.658 222.484H775.553C775.553 183.195 761.768 139.728 739.525 101.203C717.282 62.6777 686.532 29.0057 652.506 9.36084L651.558 11.0022ZM562.447 4.5323C584.435 -10.2952 616.105 -9.46683 651.558 11.0022L652.506 9.36084C616.69 -11.3178 584.193 -12.4179 561.388 2.96107L562.447 4.5323ZM562.72 3.24268L562.714 3.23226L561.109 4.24008L561.115 4.2505L562.72 3.24268ZM561.36 2.96524L560.915 3.28305L562.017 4.82491L562.462 4.5071L561.36 2.96524ZM560.324 6.03493C560.877 5.62426 561.437 5.2244 562.004 4.83476L560.929 3.27339C560.344 3.67572 559.766 4.08904 559.195 4.51316L560.324 6.03493ZM559.208 4.50312L537.604 19.9446L538.706 21.4863L560.31 6.04516L559.208 4.50312ZM537.348 21.2128L540.842 26.8779L542.455 25.8833L538.962 20.2181L537.348 21.2128ZM530.406 80.9494C530.406 58.988 534.762 40.7826 542.477 26.8394L540.819 25.9218C532.914 40.2092 528.511 58.7478 528.511 80.9494H530.406ZM652.506 292.433C618.836 272.993 588.301 239.597 566.18 201.284C544.06 162.97 530.406 119.828 530.406 80.9494H528.511C528.511 120.239 542.296 163.706 564.539 202.231C586.782 240.757 617.533 274.429 651.558 294.074L652.506 292.433ZM716.026 308.446C697.635 310.887 675.886 305.931 652.506 292.433L651.558 294.074C675.188 307.717 697.357 312.837 716.274 310.326L716.026 308.446ZM715.343 309.883L719.145 316.049L720.76 315.056L716.956 308.89L715.343 309.883ZM720.502 316.324L746.577 297.765L745.477 296.221L719.403 314.782L720.502 316.324ZM746.829 296.49L746.762 296.382L745.157 297.39L745.223 297.496L746.829 296.49Z" fill="#060606"/>
<path d="M629.469 309.328C697.164 348.412 752.042 316.728 752.042 238.56C752.042 160.392 697.164 65.3406 629.469 26.2566C561.773 -12.8274 506.895 18.8565 506.895 97.0245C506.895 175.192 561.773 270.244 629.469 309.328Z" fill="#498F00" stroke="#060606" stroke-width="1.89511"/>
<mask id="mask3_515_1879" style="mask-type:alpha" maskUnits="userSpaceOnUse" x="506" y="8" width="247" height="320">
<path d="M629.469 309.328C697.164 348.412 752.042 316.728 752.042 238.56C752.042 160.392 697.164 65.3406 629.469 26.2566C561.773 -12.8274 506.895 18.8565 506.895 97.0245C506.895 175.192 561.773 270.244 629.469 309.328Z" fill="#B0F127" stroke="#060606" stroke-width="1.89511"/>
</mask>
<g mask="url(#mask3_515_1879)">
<path d="M669.223 180.671C671.171 166.759 661.256 152.951 647.698 139.731L652.096 121.901L641.358 112.611L637.076 129.972C634.253 127.53 631.354 125.09 628.473 122.667L632.785 105.193L622.054 95.9072L617.653 113.729C615.316 111.765 613.022 109.834 610.796 107.909L610.808 107.852L596 95.0332L593.143 106.627C593.143 106.627 601.11 113.335 600.942 113.369C605.291 117.133 606.077 120.91 605.946 123.469L600.936 143.782C601.236 144.043 601.624 144.394 602.052 144.839C601.694 144.531 601.312 144.197 600.918 143.859L593.895 172.312C593.363 173.53 592.015 175.041 588.975 172.416C589.082 172.659 581.17 165.662 581.17 165.662L575.839 176.777L589.813 188.866C592.412 191.119 594.96 193.378 597.468 195.567L593.024 213.604L603.749 222.886L608.15 205.044C611.08 207.654 613.925 210.144 616.708 212.549L612.322 230.304L623.06 239.594L627.504 221.596C645.814 236.169 659.583 242.505 665.378 226.728C670.048 214.027 665.146 202.315 655.512 190.96C662.528 193.143 667.813 190.865 669.223 180.671ZM644.689 206.232C641.37 219.714 618.919 198.428 611.64 192.138L617.537 168.249C624.815 174.548 648.157 192.176 644.689 206.232ZM648.01 168.201C644.982 180.459 626.296 162.556 620.234 157.31L625.58 135.642C631.642 140.886 651.163 155.413 648.01 168.201Z" fill="#051401"/>
<path d="M629.57 309.339C697.266 348.423 752.144 316.739 752.144 238.571C752.144 160.403 697.266 65.3514 629.57 26.2674C561.875 -12.8166 506.997 18.8672 506.997 97.0352C506.997 175.203 561.875 270.255 629.57 309.339Z" stroke="#060606" stroke-width="1.89511"/>
</g>
</g>
</g>
</g>
</g>
</g>
<defs>
<linearGradient id="paint0_linear_515_1879" x1="-6.48645e-05" y1="152" x2="812.529" y2="152" gradientUnits="userSpaceOnUse">
<stop stop-color="#0A2900"/>
<stop offset="1" stop-color="#010501"/>
</linearGradient>
<clipPath id="clip0_515_1879">
<path d="M0 0H867V280C867 293.255 856.255 304 843 304H0V0Z" fill="white"/>
</clipPath>
<clipPath id="clip1_515_1879">
<rect width="147" height="231.285" fill="white" transform="translate(229 36.5)"/>
</clipPath>
<clipPath id="clip2_515_1879">
<rect width="147" height="231.285" fill="white" transform="translate(229 36.5)"/>
</clipPath>
<clipPath id="clip3_515_1879">
<rect width="147" height="231.285" fill="white" transform="translate(229 36.5)"/>
</clipPath>
<clipPath id="clip4_515_1879">
<rect width="147" height="231.294" fill="white" transform="translate(229 36.4951)"/>
</clipPath>
<clipPath id="clip5_515_1879">
<rect width="271" height="426.382" fill="white" transform="translate(505 -44.5)"/>
</clipPath>
<clipPath id="clip6_515_1879">
<rect width="271" height="426.382" fill="white" transform="translate(505 -44.5)"/>
</clipPath>
<clipPath id="clip7_515_1879">
<rect width="271" height="426.382" fill="white" transform="translate(505 -44.5)"/>
</clipPath>
<clipPath id="clip8_515_1879">
<rect width="271" height="426.399" fill="white" transform="translate(505 -44.5093)"/>
</clipPath>
</defs>
</svg>
