<svg width="867" height="304" viewBox="0 0 867 304" fill="none" xmlns="http://www.w3.org/2000/svg">
<g clip-path="url(#clip0_515_1749)">
<path d="M0 24C0 10.7452 10.7452 0 24 0H867V304H0V24Z" fill="url(#paint0_linear_515_1749)"/>
<g clip-path="url(#clip1_515_1749)">
<g clip-path="url(#clip2_515_1749)">
<g clip-path="url(#clip3_515_1749)">
<path fill-rule="evenodd" clip-rule="evenodd" d="M128.876 77.4118C126.495 76.037 126.495 73.8081 128.876 72.4333L163.774 52.285C166.155 50.9102 170.016 50.9102 172.397 52.285L172.95 52.6043C173.251 52.7318 173.559 52.8855 173.871 53.0659L311.542 132.55C315.352 134.75 318.44 140.099 318.44 144.499V204.597C318.449 204.759 318.454 204.925 318.454 205.096V259.501C318.454 271.05 310.346 285.092 300.346 290.866L271.983 307.241C261.982 313.015 253.874 308.334 253.874 296.786V242.38C253.874 238.217 256.641 233.203 260.166 230.812L173.871 180.991C170.062 178.791 166.973 173.441 166.973 169.042V99.4074L128.876 77.4118Z" fill="#B0F127"/>
<mask id="mask0_515_1749" style="mask-type:luminance" maskUnits="userSpaceOnUse" x="127" y="51" width="192" height="259">
<path fill-rule="evenodd" clip-rule="evenodd" d="M128.876 77.4118C126.495 76.037 126.495 73.8081 128.876 72.4333L163.774 52.285C166.155 50.9102 170.016 50.9102 172.397 52.285L172.95 52.6043C173.251 52.7318 173.559 52.8855 173.871 53.0659L311.542 132.55C315.352 134.75 318.44 140.099 318.44 144.499V204.597C318.449 204.759 318.454 204.925 318.454 205.096V259.501C318.454 271.05 310.346 285.092 300.346 290.866L271.983 307.241C261.982 313.015 253.874 308.334 253.874 296.786V242.38C253.874 238.217 256.641 233.203 260.166 230.812L173.871 180.991C170.062 178.791 166.973 173.441 166.973 169.042V99.4074L128.876 77.4118Z" fill="white"/>
</mask>
<g mask="url(#mask0_515_1749)">
<path d="M172.95 52.6048L172.452 53.4671L172.506 53.4978L172.562 53.5218L172.95 52.6048ZM318.441 204.597H317.445V204.625L317.446 204.653L318.441 204.597ZM260.167 230.813L260.725 231.637L262.04 230.745L260.664 229.951L260.167 230.813ZM166.973 99.408H167.969V98.8324L167.471 98.5457L166.973 99.408ZM128.378 71.5716C127.006 72.3636 126.095 73.5411 126.095 74.9231C126.095 76.3051 127.006 77.4825 128.378 78.2747L129.374 76.55C128.365 75.9674 128.086 75.343 128.086 74.9231C128.086 74.5033 128.365 73.8788 129.374 73.2962L128.378 71.5716ZM163.276 51.4233L128.378 71.5716L129.374 73.2962L164.272 53.1479L163.276 51.4233ZM172.895 51.4233C171.517 50.6279 169.775 50.2588 168.086 50.2588C166.397 50.2588 164.654 50.6279 163.276 51.4233L164.272 53.1479C165.276 52.5684 166.654 52.2502 168.086 52.2502C169.518 52.2502 170.896 52.5684 171.899 53.1479L172.895 51.4233ZM173.448 51.7425L172.895 51.4233L171.899 53.1479L172.452 53.4671L173.448 51.7425ZM174.37 52.2041C174.024 52.0046 173.68 51.8324 173.338 51.6878L172.562 53.5218C172.823 53.6323 173.094 53.7673 173.374 53.9287L174.37 52.2041ZM312.04 131.688L174.37 52.2041L173.374 53.9287L311.045 133.413L312.04 131.688ZM319.436 144.499C319.436 142.083 318.595 139.476 317.283 137.202C315.969 134.928 314.132 132.896 312.04 131.688L311.045 133.413C312.762 134.405 314.373 136.146 315.558 138.197C316.742 140.248 317.445 142.515 317.445 144.499H319.436ZM319.436 204.597V144.499H317.445V204.597H319.436ZM317.446 204.653C317.454 204.796 317.459 204.944 317.459 205.096H319.45C319.45 204.908 319.444 204.723 319.434 204.542L317.446 204.653ZM317.459 205.096V259.502H319.45V205.096H317.459ZM317.459 259.502C317.459 265.06 315.501 271.287 312.288 276.852C309.075 282.416 304.661 287.225 299.848 290.004L300.844 291.729C306.031 288.734 310.671 283.635 314.013 277.848C317.354 272.06 319.45 265.492 319.45 259.502H317.459ZM299.848 290.004L271.486 306.379L272.481 308.104L300.844 291.729L299.848 290.004ZM271.486 306.379C266.666 309.161 262.537 309.299 259.677 307.648C256.816 305.996 254.87 302.352 254.87 296.787H252.879C252.879 302.77 254.987 307.24 258.681 309.372C262.375 311.505 267.3 311.096 272.481 308.104L271.486 306.379ZM254.87 296.787V242.381H252.879V296.787H254.87ZM254.87 242.381C254.87 240.505 255.5 238.374 256.572 236.41C257.644 234.446 259.119 232.727 260.725 231.637L259.608 229.99C257.688 231.29 256.016 233.272 254.825 235.455C253.634 237.635 252.879 240.094 252.879 242.381H254.87ZM173.374 181.854L259.669 231.675L260.664 229.951L174.37 180.129L173.374 181.854ZM165.978 169.043C165.978 171.459 166.819 174.066 168.132 176.339C169.444 178.613 171.282 180.646 173.374 181.854L174.37 180.129C172.652 179.136 171.04 177.395 169.856 175.344C168.672 173.293 167.969 171.026 167.969 169.043H165.978ZM165.978 99.408V169.043H167.969V99.408H165.978ZM128.378 78.2747L166.475 100.27L167.471 98.5457L129.374 76.55L128.378 78.2747Z" fill="#060606"/>
</g>
<mask id="mask1_515_1749" style="mask-type:alpha" maskUnits="userSpaceOnUse" x="126" y="52" width="193" height="257">
<path fill-rule="evenodd" clip-rule="evenodd" d="M128.775 80.8206L166.973 102.874V169.045C166.973 173.444 170.061 178.794 173.871 180.994L260.167 230.816C256.642 233.207 253.876 238.221 253.876 242.383V295.844C253.876 307.392 261.984 312.073 271.985 306.299L300.347 289.924C310.348 284.15 318.456 270.107 318.456 258.559V205.098C318.456 204.917 318.45 204.739 318.44 204.567V144.501C318.44 140.102 315.352 134.752 311.542 132.553L173.871 53.0691C171.449 51.6707 169.319 51.882 168.088 53.3518C167.58 53.5103 167.102 53.7135 166.673 53.9614L128.775 75.8418C126.394 77.2165 126.394 79.4455 128.775 80.8206Z" fill="#141414"/>
<mask id="mask2_515_1749" style="mask-type:alpha" maskUnits="userSpaceOnUse" x="126" y="52" width="193" height="257">
<path fill-rule="evenodd" clip-rule="evenodd" d="M128.775 80.8206L166.973 102.874V169.045C166.973 173.444 170.061 178.794 173.871 180.994L260.167 230.816C256.642 233.207 253.876 238.221 253.876 242.383V295.844C253.876 307.392 261.984 312.073 271.985 306.299L300.347 289.924C310.348 284.15 318.456 270.107 318.456 258.559V205.098C318.456 204.917 318.45 204.739 318.44 204.567V144.501C318.44 140.102 315.352 134.752 311.542 132.553L173.871 53.0691C171.449 51.6707 169.319 51.882 168.088 53.3518C167.58 53.5103 167.102 53.7135 166.673 53.9614L128.775 75.8418C126.394 77.2165 126.394 79.4455 128.775 80.8206Z" fill="white"/>
</mask>
<g mask="url(#mask2_515_1749)">
<path d="M166.973 102.874H167.969V102.299L167.471 102.012L166.973 102.874ZM260.167 230.816L260.726 231.641L262.041 230.748L260.665 229.954L260.167 230.816ZM318.44 204.567H317.445V204.596L317.447 204.626L318.44 204.567ZM168.088 53.3516L168.385 54.3022L168.664 54.2151L168.852 53.9908L168.088 53.3516ZM167.471 102.012L129.273 79.9581L128.277 81.6826L166.475 103.736L167.471 102.012ZM167.969 169.045V102.874H165.977V169.045H167.969ZM174.369 180.131C172.651 179.139 171.04 177.397 169.856 175.347C168.672 173.296 167.969 171.028 167.969 169.045H165.977C165.977 171.461 166.819 174.068 168.131 176.343C169.444 178.616 171.282 180.648 173.374 181.856L174.369 180.131ZM260.665 229.954L174.369 180.131L173.374 181.856L259.669 231.678L260.665 229.954ZM254.872 242.383C254.872 240.508 255.501 238.377 256.574 236.413C257.646 234.449 259.12 232.73 260.726 231.641L259.609 229.993C257.69 231.294 256.018 233.275 254.826 235.458C253.636 237.639 252.881 240.096 252.881 242.383H254.872ZM254.872 295.844V242.383H252.881V295.844H254.872ZM271.487 305.437C266.668 308.219 262.539 308.356 259.678 306.705C256.818 305.053 254.872 301.409 254.872 295.844H252.881C252.881 301.827 254.989 306.297 258.683 308.43C262.377 310.562 267.301 310.153 272.483 307.161L271.487 305.437ZM299.85 289.061L271.487 305.437L272.483 307.161L300.845 290.786L299.85 289.061ZM317.461 258.559C317.461 264.117 315.502 270.344 312.29 275.909C309.077 281.473 304.663 286.282 299.85 289.061L300.845 290.786C306.033 287.791 310.673 282.692 314.015 276.905C317.356 271.118 319.452 264.549 319.452 258.559H317.461ZM317.461 205.098V258.559H319.452V205.098H317.461ZM317.447 204.626C317.456 204.779 317.461 204.936 317.461 205.098H319.452C319.452 204.897 319.446 204.7 319.434 204.507L317.447 204.626ZM317.445 144.501V204.567H319.436V144.501H317.445ZM311.044 133.415C312.762 134.407 314.373 136.149 315.558 138.2C316.742 140.252 317.445 142.518 317.445 144.501H319.436C319.436 142.086 318.595 139.478 317.282 137.205C315.969 134.931 314.132 132.898 312.04 131.691L311.044 133.415ZM173.374 53.9312L311.044 133.415L312.04 131.691L174.369 52.2067L173.374 53.9312ZM168.852 53.9908C169.655 53.0313 171.19 52.6706 173.374 53.9312L174.369 52.2067C171.709 50.6705 168.983 50.7323 167.325 52.7124L168.852 53.9908ZM167.171 54.8236C167.528 54.6171 167.937 54.4418 168.385 54.3022L167.792 52.401C167.223 52.5784 166.676 52.8095 166.175 53.099L167.171 54.8236ZM129.273 76.7039L167.171 54.8236L166.175 53.099L128.277 74.9793L129.273 76.7039ZM129.273 79.9581C128.264 79.3746 127.985 78.7506 127.985 78.3308C127.985 77.911 128.264 77.2866 129.273 76.7039L128.277 74.9793C126.905 75.7714 125.993 76.9488 125.993 78.3308C125.993 79.7132 126.905 80.8901 128.277 81.6826L129.273 79.9581Z" fill="#060606"/>
</g>
</mask>
<g mask="url(#mask1_515_1749)">
<path d="M253.879 181.302C253.879 176.902 256.968 171.553 260.777 169.354L325.184 132.169C328.993 129.969 332.082 131.752 332.082 136.151V259.636C332.082 271.184 323.974 285.226 313.973 291L271.987 315.241C261.986 321.015 253.879 316.335 253.879 304.787V181.302Z" fill="#141414"/>
</g>
<mask id="mask3_515_1749" style="mask-type:luminance" maskUnits="userSpaceOnUse" x="127" y="51" width="192" height="259">
<path fill-rule="evenodd" clip-rule="evenodd" d="M128.876 77.4118C126.495 76.037 126.495 73.8081 128.876 72.4333L163.774 52.285C166.155 50.9102 170.016 50.9102 172.397 52.285L172.95 52.6043C173.251 52.7318 173.559 52.8855 173.871 53.0659L311.542 132.55C315.352 134.75 318.44 140.099 318.44 144.499V204.597C318.449 204.759 318.454 204.925 318.454 205.096V259.501C318.454 271.05 310.346 285.092 300.346 290.866L271.983 307.241C261.982 313.015 253.874 308.334 253.874 296.786V242.38C253.874 238.217 256.641 233.203 260.166 230.812L173.871 180.991C170.062 178.791 166.973 173.441 166.973 169.042V99.4074L128.876 77.4118Z" fill="#156200"/>
</mask>
<g mask="url(#mask3_515_1749)">
<path d="M172.95 52.6048L172.452 53.4671L172.506 53.4978L172.562 53.5218L172.95 52.6048ZM318.441 204.597H317.445V204.625L317.446 204.653L318.441 204.597ZM260.167 230.813L260.725 231.637L262.04 230.745L260.664 229.951L260.167 230.813ZM166.973 99.408H167.969V98.8324L167.471 98.5457L166.973 99.408ZM128.378 71.5716C127.006 72.3636 126.095 73.5411 126.095 74.9231C126.095 76.3051 127.006 77.4825 128.378 78.2747L129.374 76.55C128.365 75.9674 128.086 75.343 128.086 74.9231C128.086 74.5033 128.365 73.8788 129.374 73.2962L128.378 71.5716ZM163.276 51.4233L128.378 71.5716L129.374 73.2962L164.272 53.1479L163.276 51.4233ZM172.895 51.4233C171.517 50.6279 169.775 50.2588 168.086 50.2588C166.397 50.2588 164.654 50.6279 163.276 51.4233L164.272 53.1479C165.276 52.5684 166.654 52.2502 168.086 52.2502C169.518 52.2502 170.896 52.5684 171.899 53.1479L172.895 51.4233ZM173.448 51.7425L172.895 51.4233L171.899 53.1479L172.452 53.4671L173.448 51.7425ZM174.37 52.2041C174.024 52.0046 173.68 51.8324 173.338 51.6878L172.562 53.5218C172.823 53.6323 173.094 53.7673 173.374 53.9287L174.37 52.2041ZM312.04 131.688L174.37 52.2041L173.374 53.9287L311.045 133.413L312.04 131.688ZM319.436 144.499C319.436 142.083 318.595 139.476 317.283 137.202C315.969 134.928 314.132 132.896 312.04 131.688L311.045 133.413C312.762 134.405 314.373 136.146 315.558 138.197C316.742 140.248 317.445 142.515 317.445 144.499H319.436ZM319.436 204.597V144.499H317.445V204.597H319.436ZM317.446 204.653C317.454 204.796 317.459 204.944 317.459 205.096H319.45C319.45 204.908 319.444 204.723 319.434 204.542L317.446 204.653ZM317.459 205.096V259.502H319.45V205.096H317.459ZM317.459 259.502C317.459 265.06 315.501 271.287 312.288 276.852C309.075 282.416 304.661 287.225 299.848 290.004L300.844 291.729C306.031 288.734 310.671 283.635 314.013 277.848C317.354 272.06 319.45 265.492 319.45 259.502H317.459ZM299.848 290.004L271.486 306.379L272.481 308.104L300.844 291.729L299.848 290.004ZM271.486 306.379C266.666 309.161 262.537 309.299 259.677 307.648C256.816 305.996 254.87 302.352 254.87 296.787H252.879C252.879 302.77 254.987 307.24 258.681 309.372C262.375 311.505 267.3 311.096 272.481 308.104L271.486 306.379ZM254.87 296.787V242.381H252.879V296.787H254.87ZM254.87 242.381C254.87 240.505 255.5 238.374 256.572 236.41C257.644 234.446 259.119 232.727 260.725 231.637L259.608 229.99C257.688 231.29 256.016 233.272 254.825 235.455C253.634 237.635 252.879 240.094 252.879 242.381H254.87ZM173.374 181.854L259.669 231.675L260.664 229.951L174.37 180.129L173.374 181.854ZM165.978 169.043C165.978 171.459 166.819 174.066 168.132 176.339C169.444 178.613 171.282 180.646 173.374 181.854L174.37 180.129C172.652 179.136 171.04 177.395 169.856 175.344C168.672 173.293 167.969 171.026 167.969 169.043H165.978ZM165.978 99.408V169.043H167.969V99.408H165.978ZM128.378 78.2747L166.475 100.27L167.471 98.5457L129.374 76.55L128.378 78.2747Z" fill="#060606"/>
</g>
<path d="M132.899 73.9868L274.445 155.708C278.016 157.771 280.912 162.785 280.912 166.91V284.22C280.912 305.942 265.662 314.746 246.851 303.885L146.695 246.06C135.504 239.599 126.431 223.884 126.431 210.961L126.431 77.7207C126.431 73.5963 129.327 71.9246 132.899 73.9868Z" fill="#498F00" stroke="#060606" stroke-width="0.995696"/>
<mask id="mask4_515_1749" style="mask-type:alpha" maskUnits="userSpaceOnUse" x="125" y="72" width="157" height="238">
<path d="M132.898 73.9814L274.444 155.704C278.016 157.766 280.911 162.78 280.911 166.905V284.214C280.911 305.936 265.662 314.74 246.851 303.879L146.695 246.054C135.504 239.593 126.431 223.879 126.431 210.956L126.431 77.7153C126.431 73.5909 129.327 71.9193 132.898 73.9814Z" fill="#B0F127" stroke="#060606" stroke-width="0.995696"/>
</mask>
<g mask="url(#mask4_515_1749)">
<path d="M318.457 180.617L105.182 57.4824L105.182 121.836L318.457 244.971L318.457 180.617Z" fill="#B1F128"/>
</g>
<path d="M132.899 73.9868L274.445 155.708C278.016 157.771 280.912 162.785 280.912 166.91V284.22C280.912 305.942 265.662 314.746 246.851 303.885L146.695 246.06C135.504 239.599 126.431 223.884 126.431 210.961L126.431 77.7207C126.431 73.5963 129.327 71.9246 132.899 73.9868Z" stroke="#060606" stroke-width="0.995696"/>
<path d="M198.049 242.171C219.702 254.672 237.256 244.538 237.256 219.534C237.256 194.531 219.702 164.128 198.049 151.626C176.396 139.125 158.842 149.259 158.842 174.262C158.842 199.265 176.396 229.669 198.049 242.171Z" fill="#939393" stroke="#060606" stroke-width="0.995696"/>
<mask id="mask5_515_1749" style="mask-type:alpha" maskUnits="userSpaceOnUse" x="158" y="145" width="80" height="104">
<path d="M198.049 242.17C219.702 254.671 237.256 244.537 237.256 219.534C237.256 194.53 219.702 164.127 198.049 151.625C176.396 139.124 158.842 149.258 158.842 174.261C158.842 199.264 176.396 229.668 198.049 242.17Z" fill="#498F00" stroke="#060606" stroke-width="0.995696"/>
</mask>
<g mask="url(#mask5_515_1749)">
<path d="M321.485 182.461L108.21 59.3262L108.21 123.833L321.485 246.967L321.485 182.461Z" fill="#156200"/>
</g>
<path d="M198.049 242.171C219.702 254.672 237.256 244.538 237.256 219.534C237.256 194.531 219.702 164.128 198.049 151.626C176.396 139.125 158.842 149.259 158.842 174.262C158.842 199.265 176.396 229.669 198.049 242.171Z" stroke="#060606" stroke-width="0.995696"/>
<path d="M198.051 232.46C215.058 242.279 228.846 234.319 228.846 214.681C228.846 195.042 215.058 171.162 198.051 161.343C181.044 151.524 167.257 159.484 167.257 179.122C167.257 198.761 181.044 222.641 198.051 232.46Z" fill="url(#paint1_radial_515_1749)" stroke="#060606" stroke-width="0.995696"/>
<path d="M200.311 231.157C216.07 240.255 228.846 232.879 228.846 214.682C228.846 196.485 216.07 174.357 200.311 165.259C184.552 156.16 171.776 163.536 171.776 181.733C171.776 199.93 184.552 222.058 200.311 231.157Z" fill="#051401" stroke="#060606" stroke-width="0.995696"/>
<path d="M202.328 190.191C202.328 187.462 200.412 184.143 198.049 182.779C195.685 181.414 193.769 182.52 193.769 185.249L193.769 206.219C193.769 208.949 195.685 212.267 198.049 213.632C200.412 214.997 202.328 213.89 202.328 211.161L202.328 190.191Z" fill="url(#paint2_radial_515_1749)" stroke="#060606" stroke-width="0.995696"/>
<path d="M158.863 24.2406L159.064 75.7752C159.064 77.5637 160.244 79.3524 162.603 80.7075C165.24 82.0368 168.156 82.7198 171.11 82.6999C174.065 82.681 176.971 81.9601 179.591 80.596C181.951 79.2189 183.108 77.4082 183.097 75.6196L182.908 24.1072C182.908 15.1201 185.401 8.48793 189.843 5.91068C194.285 3.33341 201.32 4.39981 209.134 8.8657L222.426 16.4531C243.242 28.3509 260.897 58.6118 260.987 82.5406L261.176 134.075C261.176 135.864 262.367 137.652 264.726 139.008C268.149 140.779 272.046 141.425 275.858 140.852C277.932 140.613 279.939 139.963 281.758 138.941C282.346 138.606 282.895 138.208 283.395 137.752C283.957 137.289 284.415 136.712 284.738 136.059C285.061 135.406 285.24 134.692 285.265 133.964L285.076 82.452C285.009 66.7991 279.755 49.2025 270.248 32.9278C260.742 16.653 247.984 3.40003 234.393 -4.37626L221.112 -11.9748C214.32 -16.0241 206.72 -18.5382 198.849 -19.3401C191.503 -20.0469 184.117 -18.4758 177.698 -14.8409C171.371 -11.0684 166.363 -5.43927 163.36 1.2782C160.19 8.51014 158.655 16.3498 158.863 24.2406Z" fill="#060606" stroke="#060606" stroke-width="0.995696" stroke-linecap="round" stroke-linejoin="round"/>
</g>
</g>
</g>
<g opacity="0.25">
<g clip-path="url(#clip4_515_1749)">
<g clip-path="url(#clip5_515_1749)">
<path fill-rule="evenodd" clip-rule="evenodd" d="M467.891 102.874C466.325 101.97 466.325 100.504 467.891 99.6006L490.835 86.3537C492.401 85.4498 494.939 85.4498 496.505 86.3537L496.868 86.5636C497.066 86.6475 497.269 86.7485 497.474 86.8671L587.988 139.126C590.493 140.572 592.524 144.088 592.524 146.981V186.494C592.529 186.601 592.533 186.71 592.533 186.822V222.592C592.533 230.184 587.202 239.417 580.627 243.213L561.979 253.979C555.404 257.776 550.073 254.698 550.073 247.106V211.335C550.073 208.598 551.892 205.302 554.21 203.73L497.474 170.974C494.969 169.528 492.939 166.01 492.939 163.118V117.335L467.891 102.874Z" fill="#B0F127"/>
<mask id="mask6_515_1749" style="mask-type:luminance" maskUnits="userSpaceOnUse" x="466" y="85" width="127" height="171">
<path fill-rule="evenodd" clip-rule="evenodd" d="M467.891 102.874C466.325 101.97 466.325 100.504 467.891 99.6006L490.835 86.3537C492.401 85.4498 494.939 85.4498 496.505 86.3537L496.868 86.5636C497.066 86.6475 497.269 86.7485 497.474 86.8671L587.988 139.126C590.493 140.572 592.524 144.088 592.524 146.981V186.494C592.529 186.601 592.533 186.71 592.533 186.822V222.592C592.533 230.184 587.202 239.417 580.627 243.213L561.979 253.979C555.404 257.776 550.073 254.698 550.073 247.106V211.335C550.073 208.598 551.892 205.302 554.21 203.73L497.474 170.974C494.969 169.528 492.939 166.01 492.939 163.118V117.335L467.891 102.874Z" fill="white"/>
</mask>
<g mask="url(#mask6_515_1749)">
<path d="M496.868 86.5635L496.541 87.1304L496.576 87.1505L496.613 87.1663L496.868 86.5635ZM592.524 186.494H591.869V186.512L591.87 186.53L592.524 186.494ZM554.21 203.73L554.578 204.272L555.442 203.685L554.538 203.163L554.21 203.73ZM492.939 117.335H493.593V116.957L493.266 116.768L492.939 117.335ZM467.564 99.0335C466.662 99.5542 466.062 100.328 466.062 101.237C466.062 102.146 466.662 102.92 467.564 103.441L468.218 102.307C467.555 101.924 467.372 101.513 467.372 101.237C467.372 100.961 467.555 100.55 468.218 100.167L467.564 99.0335ZM490.508 85.7866L467.564 99.0335L468.218 100.167L491.163 86.9205L490.508 85.7866ZM496.832 85.7866C495.926 85.2637 494.78 85.021 493.67 85.021C492.56 85.021 491.414 85.2637 490.508 85.7866L491.163 86.9205C491.822 86.5395 492.729 86.3303 493.67 86.3303C494.612 86.3303 495.518 86.5395 496.177 86.9205L496.832 85.7866ZM497.195 85.9965L496.832 85.7866L496.177 86.9205L496.541 87.1304L497.195 85.9965ZM497.801 86.3C497.574 86.1688 497.348 86.0556 497.123 85.9605L496.613 87.1663C496.785 87.239 496.963 87.3277 497.147 87.4339L497.801 86.3ZM588.316 138.558L497.801 86.3L497.147 87.4339L587.661 139.692L588.316 138.558ZM593.178 146.981C593.178 145.393 592.625 143.678 591.762 142.183C590.899 140.689 589.691 139.353 588.316 138.558L587.661 139.692C588.79 140.344 589.849 141.489 590.628 142.838C591.407 144.186 591.869 145.676 591.869 146.981H593.178ZM593.178 186.494V146.981H591.869V186.494H593.178ZM591.87 186.53C591.875 186.625 591.878 186.722 591.878 186.822H593.187C593.187 186.698 593.184 186.576 593.177 186.457L591.87 186.53ZM591.878 186.822V222.592H593.187V186.822H591.878ZM591.878 222.592C591.878 226.246 590.591 230.34 588.479 233.999C586.366 237.657 583.464 240.819 580.3 242.646L580.954 243.78C584.365 241.811 587.416 238.458 589.612 234.654C591.809 230.848 593.187 226.53 593.187 222.592H591.878ZM580.3 242.646L561.652 253.412L562.307 254.546L580.954 243.78L580.3 242.646ZM561.652 253.412C558.484 255.241 555.769 255.332 553.888 254.246C552.007 253.16 550.728 250.764 550.728 247.105H549.419C549.419 251.039 550.805 253.978 553.234 255.38C555.662 256.782 558.9 256.513 562.307 254.546L561.652 253.412ZM550.728 247.105V211.335H549.419V247.105H550.728ZM550.728 211.335C550.728 210.102 551.142 208.701 551.847 207.409C552.552 206.118 553.522 204.988 554.578 204.272L553.843 203.188C552.581 204.043 551.482 205.347 550.698 206.782C549.915 208.215 549.419 209.832 549.419 211.335H550.728ZM497.147 171.54L553.883 204.297L554.538 203.163L497.801 170.407L497.147 171.54ZM492.284 163.118C492.284 164.706 492.837 166.421 493.7 167.915C494.563 169.41 495.771 170.746 497.147 171.54L497.801 170.407C496.672 169.754 495.613 168.609 494.834 167.26C494.055 165.912 493.593 164.422 493.593 163.118H492.284ZM492.284 117.335V163.118H493.593V117.335H492.284ZM467.564 103.441L492.611 117.902L493.266 116.768L468.218 102.307L467.564 103.441Z" fill="#060606"/>
</g>
<mask id="mask7_515_1749" style="mask-type:alpha" maskUnits="userSpaceOnUse" x="466" y="86" width="127" height="169">
<path fill-rule="evenodd" clip-rule="evenodd" d="M467.824 105.115L492.938 119.614V163.12C492.938 166.012 494.969 169.529 497.474 170.975L554.211 203.732C551.893 205.304 550.075 208.601 550.075 211.337V246.486C550.075 254.078 555.405 257.156 561.981 253.36L580.628 242.593C587.203 238.797 592.534 229.565 592.534 221.972V186.823C592.534 186.704 592.53 186.587 592.523 186.474V146.983C592.523 144.091 590.493 140.573 587.988 139.127L497.474 86.8689C495.881 85.9496 494.481 86.0885 493.672 87.0548C493.337 87.159 493.023 87.2926 492.741 87.4556L467.824 101.841C466.259 102.745 466.259 104.211 467.824 105.115Z" fill="#141414"/>
<mask id="mask8_515_1749" style="mask-type:alpha" maskUnits="userSpaceOnUse" x="466" y="86" width="127" height="169">
<path fill-rule="evenodd" clip-rule="evenodd" d="M467.824 105.115L492.938 119.614V163.12C492.938 166.012 494.969 169.529 497.474 170.975L554.211 203.732C551.893 205.304 550.075 208.601 550.075 211.337V246.486C550.075 254.078 555.405 257.156 561.981 253.36L580.628 242.593C587.203 238.797 592.534 229.565 592.534 221.972V186.823C592.534 186.704 592.53 186.587 592.523 186.474V146.983C592.523 144.091 590.493 140.573 587.988 139.127L497.474 86.8689C495.881 85.9496 494.481 86.0885 493.672 87.0548C493.337 87.159 493.023 87.2926 492.741 87.4556L467.824 101.841C466.259 102.745 466.259 104.211 467.824 105.115Z" fill="white"/>
</mask>
<g mask="url(#mask8_515_1749)">
<path d="M492.939 119.614H493.593V119.236L493.266 119.047L492.939 119.614ZM554.211 203.732L554.578 204.274L555.443 203.688L554.538 203.165L554.211 203.732ZM592.524 186.474H591.869V186.494L591.87 186.513L592.524 186.474ZM493.672 87.0548L493.867 87.6798L494.05 87.6225L494.174 87.4751L493.672 87.0548ZM493.266 119.047L468.152 104.548L467.497 105.682L492.611 120.181L493.266 119.047ZM493.593 163.12V119.614H492.284V163.12H493.593ZM497.801 170.408C496.672 169.756 495.612 168.611 494.834 167.263C494.055 165.914 493.593 164.424 493.593 163.12H492.284C492.284 164.708 492.837 166.422 493.7 167.917C494.563 169.412 495.771 170.748 497.147 171.542L497.801 170.408ZM554.538 203.165L497.801 170.408L497.147 171.542L553.884 204.299L554.538 203.165ZM550.729 211.337C550.729 210.104 551.143 208.703 551.848 207.412C552.553 206.121 553.522 204.99 554.578 204.274L553.844 203.191C552.582 204.046 551.483 205.349 550.699 206.784C549.916 208.218 549.42 209.833 549.42 211.337H550.729ZM550.729 246.486V211.337H549.42V246.486H550.729ZM561.653 252.793C558.485 254.622 555.77 254.712 553.889 253.627C552.009 252.541 550.729 250.145 550.729 246.486H549.42C549.42 250.42 550.806 253.358 553.235 254.761C555.664 256.163 558.901 255.894 562.308 253.927L561.653 252.793ZM580.301 242.027L561.653 252.793L562.308 253.927L580.955 243.16L580.301 242.027ZM591.879 221.972C591.879 225.627 590.592 229.721 588.48 233.379C586.367 237.038 583.465 240.199 580.301 242.027L580.955 243.16C584.366 241.191 587.417 237.839 589.614 234.034C591.811 230.229 593.189 225.911 593.189 221.972H591.879ZM591.879 186.823V221.972H593.189V186.823H591.879ZM591.87 186.513C591.876 186.613 591.879 186.717 591.879 186.823H593.189C593.189 186.691 593.185 186.562 593.177 186.435L591.87 186.513ZM591.869 146.983V186.474H593.178V146.983H591.869ZM587.661 139.694C588.79 140.346 589.849 141.492 590.628 142.84C591.407 144.189 591.869 145.679 591.869 146.983H593.178C593.178 145.395 592.625 143.68 591.762 142.186C590.899 140.69 589.691 139.354 588.316 138.56L587.661 139.694ZM497.147 87.4359L587.661 139.694L588.316 138.56L497.801 86.302L497.147 87.4359ZM494.174 87.4751C494.702 86.8442 495.711 86.6071 497.147 87.4359L497.801 86.302C496.052 85.2921 494.26 85.3327 493.17 86.6345L494.174 87.4751ZM493.068 88.0226C493.304 87.8869 493.572 87.7716 493.867 87.6798L493.477 86.4298C493.103 86.5465 492.743 86.6984 492.414 86.8887L493.068 88.0226ZM468.152 102.408L493.068 88.0226L492.414 86.8887L467.497 101.274L468.152 102.408ZM468.152 104.548C467.488 104.164 467.305 103.754 467.305 103.478C467.305 103.202 467.488 102.791 468.152 102.408L467.497 101.274C466.595 101.795 465.996 102.569 465.996 103.478C465.996 104.387 466.595 105.16 467.497 105.682L468.152 104.548Z" fill="#060606"/>
</g>
</mask>
<g mask="url(#mask7_515_1749)">
<path d="M550.076 171.179C550.076 168.286 552.107 164.769 554.612 163.323L596.957 138.875C599.462 137.429 601.492 138.601 601.492 141.493V222.68C601.492 230.273 596.162 239.505 589.587 243.301L561.982 259.239C555.406 263.036 550.076 259.958 550.076 252.366V171.179Z" fill="#141414"/>
</g>
<mask id="mask9_515_1749" style="mask-type:luminance" maskUnits="userSpaceOnUse" x="466" y="85" width="127" height="171">
<path fill-rule="evenodd" clip-rule="evenodd" d="M467.891 102.874C466.325 101.97 466.325 100.504 467.891 99.6006L490.835 86.3537C492.401 85.4498 494.939 85.4498 496.505 86.3537L496.868 86.5636C497.066 86.6475 497.269 86.7485 497.474 86.8671L587.988 139.126C590.493 140.572 592.524 144.088 592.524 146.981V186.494C592.529 186.601 592.533 186.71 592.533 186.822V222.592C592.533 230.184 587.202 239.417 580.627 243.213L561.979 253.979C555.404 257.776 550.073 254.698 550.073 247.106V211.335C550.073 208.598 551.892 205.302 554.21 203.73L497.474 170.974C494.969 169.528 492.939 166.01 492.939 163.118V117.335L467.891 102.874Z" fill="#156200"/>
</mask>
<g mask="url(#mask9_515_1749)">
<path d="M496.868 86.5635L496.541 87.1304L496.576 87.1505L496.613 87.1663L496.868 86.5635ZM592.524 186.494H591.869V186.512L591.87 186.53L592.524 186.494ZM554.21 203.73L554.578 204.272L555.442 203.685L554.538 203.163L554.21 203.73ZM492.939 117.335H493.593V116.957L493.266 116.768L492.939 117.335ZM467.564 99.0335C466.662 99.5542 466.062 100.328 466.062 101.237C466.062 102.146 466.662 102.92 467.564 103.441L468.218 102.307C467.555 101.924 467.372 101.513 467.372 101.237C467.372 100.961 467.555 100.55 468.218 100.167L467.564 99.0335ZM490.508 85.7866L467.564 99.0335L468.218 100.167L491.163 86.9205L490.508 85.7866ZM496.832 85.7866C495.926 85.2637 494.78 85.021 493.67 85.021C492.56 85.021 491.414 85.2637 490.508 85.7866L491.163 86.9205C491.822 86.5395 492.729 86.3303 493.67 86.3303C494.612 86.3303 495.518 86.5395 496.177 86.9205L496.832 85.7866ZM497.195 85.9965L496.832 85.7866L496.177 86.9205L496.541 87.1304L497.195 85.9965ZM497.801 86.3C497.574 86.1688 497.348 86.0556 497.123 85.9605L496.613 87.1663C496.785 87.239 496.963 87.3277 497.147 87.4339L497.801 86.3ZM588.316 138.558L497.801 86.3L497.147 87.4339L587.661 139.692L588.316 138.558ZM593.178 146.981C593.178 145.393 592.625 143.678 591.762 142.183C590.899 140.689 589.691 139.353 588.316 138.558L587.661 139.692C588.79 140.344 589.849 141.489 590.628 142.838C591.407 144.186 591.869 145.676 591.869 146.981H593.178ZM593.178 186.494V146.981H591.869V186.494H593.178ZM591.87 186.53C591.875 186.625 591.878 186.722 591.878 186.822H593.187C593.187 186.698 593.184 186.576 593.177 186.457L591.87 186.53ZM591.878 186.822V222.592H593.187V186.822H591.878ZM591.878 222.592C591.878 226.246 590.591 230.34 588.479 233.999C586.366 237.657 583.464 240.819 580.3 242.646L580.954 243.78C584.365 241.811 587.416 238.458 589.612 234.654C591.809 230.848 593.187 226.53 593.187 222.592H591.878ZM580.3 242.646L561.652 253.412L562.307 254.546L580.954 243.78L580.3 242.646ZM561.652 253.412C558.484 255.241 555.769 255.332 553.888 254.246C552.007 253.16 550.728 250.764 550.728 247.105H549.419C549.419 251.039 550.805 253.978 553.234 255.38C555.662 256.782 558.9 256.513 562.307 254.546L561.652 253.412ZM550.728 247.105V211.335H549.419V247.105H550.728ZM550.728 211.335C550.728 210.102 551.142 208.701 551.847 207.409C552.552 206.118 553.522 204.988 554.578 204.272L553.843 203.188C552.581 204.043 551.482 205.347 550.698 206.782C549.915 208.215 549.419 209.832 549.419 211.335H550.728ZM497.147 171.54L553.883 204.297L554.538 203.163L497.801 170.407L497.147 171.54ZM492.284 163.118C492.284 164.706 492.837 166.421 493.7 167.915C494.563 169.41 495.771 170.746 497.147 171.54L497.801 170.407C496.672 169.754 495.613 168.609 494.834 167.26C494.055 165.912 493.593 164.422 493.593 163.118H492.284ZM492.284 117.335V163.118H493.593V117.335H492.284ZM467.564 103.441L492.611 117.902L493.266 116.768L468.218 102.307L467.564 103.441Z" fill="#060606"/>
</g>
<path d="M470.536 100.622L563.598 154.351C565.946 155.707 567.85 159.004 567.85 161.716V238.843C567.85 253.125 557.824 258.913 545.456 251.772L479.607 213.754C472.249 209.506 466.284 199.175 466.284 190.678L466.284 103.077C466.284 100.365 468.187 99.2659 470.536 100.622Z" fill="#498F00" stroke="#060606" stroke-width="0.654639"/>
<mask id="mask10_515_1749" style="mask-type:alpha" maskUnits="userSpaceOnUse" x="465" y="99" width="104" height="157">
<path d="M470.535 100.618L563.597 154.348C565.946 155.703 567.849 159 567.849 161.712V238.839C567.849 253.121 557.823 258.909 545.455 251.768L479.606 213.75C472.248 209.502 466.283 199.171 466.283 190.674L466.283 103.073C466.283 100.361 468.187 99.262 470.535 100.618Z" fill="#B0F127" stroke="#060606" stroke-width="0.654639"/>
</mask>
<g mask="url(#mask10_515_1749)">
<path d="M592.535 170.728L452.313 89.7705L452.313 132.081L592.535 213.039L592.535 170.728Z" fill="#B1F128"/>
</g>
<path d="M470.536 100.622L563.598 154.351C565.946 155.707 567.85 159.004 567.85 161.716V238.843C567.85 253.125 557.824 258.913 545.456 251.772L479.607 213.754C472.249 209.506 466.284 199.175 466.284 190.678L466.284 103.077C466.284 100.365 468.187 99.2659 470.536 100.622Z" stroke="#060606" stroke-width="0.654639"/>
<path d="M513.37 211.198C527.606 219.417 539.147 212.754 539.147 196.315C539.147 179.876 527.606 159.887 513.37 151.668C499.134 143.448 487.593 150.111 487.593 166.55C487.593 182.989 499.134 202.978 513.37 211.198Z" fill="#939393" stroke="#060606" stroke-width="0.654639"/>
<mask id="mask11_515_1749" style="mask-type:alpha" maskUnits="userSpaceOnUse" x="487" y="147" width="53" height="69">
<path d="M513.37 211.197C527.606 219.416 539.147 212.753 539.147 196.314C539.147 179.875 527.606 159.886 513.37 151.667C499.134 143.447 487.593 150.11 487.593 166.549C487.593 182.988 499.134 202.977 513.37 211.197Z" fill="#498F00" stroke="#060606" stroke-width="0.654639"/>
</mask>
<g mask="url(#mask11_515_1749)">
<path d="M594.525 171.94L454.303 90.9829L454.303 133.394L594.525 214.351L594.525 171.94Z" fill="#156200"/>
</g>
<path d="M513.37 211.198C527.606 219.417 539.147 212.754 539.147 196.315C539.147 179.876 527.606 159.887 513.37 151.668C499.134 143.448 487.593 150.111 487.593 166.55C487.593 182.989 499.134 202.978 513.37 211.198Z" stroke="#060606" stroke-width="0.654639"/>
<path d="M513.371 204.812C524.553 211.268 533.618 206.035 533.618 193.123C533.618 180.212 524.553 164.511 513.371 158.055C502.19 151.6 493.125 156.833 493.125 169.745C493.125 182.656 502.19 198.357 513.371 204.812Z" fill="url(#paint3_radial_515_1749)" stroke="#060606" stroke-width="0.654639"/>
<path d="M514.857 203.956C525.218 209.938 533.618 205.089 533.618 193.125C533.618 181.161 525.218 166.612 514.857 160.63C504.496 154.648 496.096 159.498 496.096 171.462C496.096 183.426 504.496 197.974 514.857 203.956Z" fill="#051401" stroke="#060606" stroke-width="0.654639"/>
<path d="M516.183 177.023C516.183 175.228 514.924 173.046 513.37 172.149C511.816 171.252 510.556 171.979 510.556 173.773L510.556 187.561C510.556 189.355 511.816 191.537 513.37 192.434C514.924 193.331 516.183 192.604 516.183 190.81L516.183 177.023Z" fill="url(#paint4_radial_515_1749)" stroke="#060606" stroke-width="0.654639"/>
<path d="M487.607 67.9149L487.738 101.797C487.738 102.973 488.514 104.149 490.066 105.04C491.799 105.914 493.717 106.363 495.659 106.35C497.601 106.338 499.512 105.864 501.234 104.967C502.786 104.061 503.547 102.871 503.54 101.695L503.415 67.8272C503.415 61.9185 505.055 57.558 507.975 55.8636C510.895 54.1691 515.521 54.8702 520.658 57.8064L529.397 62.7949C543.083 70.6173 554.691 90.5129 554.75 106.245L554.874 140.127C554.874 141.304 555.657 142.48 557.208 143.371C559.458 144.535 562.021 144.96 564.527 144.583C565.891 144.426 567.21 143.999 568.406 143.327C568.793 143.107 569.154 142.845 569.482 142.545C569.852 142.241 570.153 141.862 570.365 141.432C570.577 141.003 570.695 140.533 570.712 140.055L570.587 106.187C570.543 95.8958 567.089 84.3266 560.838 73.6265C554.588 62.9263 546.201 54.2129 537.265 49.1002L528.533 44.1044C524.067 41.4422 519.071 39.7892 513.896 39.262C509.066 38.7973 504.21 39.8302 499.99 42.22C495.83 44.7003 492.538 48.4013 490.563 52.8179C488.479 57.5726 487.47 62.7269 487.607 67.9149Z" fill="#060606" stroke="#060606" stroke-width="0.654639" stroke-linecap="round" stroke-linejoin="round"/>
</g>
</g>
</g>
</g>
<defs>
<linearGradient id="paint0_linear_515_1749" x1="1061" y1="136.5" x2="-5.11233e-05" y2="152" gradientUnits="userSpaceOnUse">
<stop stop-color="#0A2901"/>
<stop offset="1" stop-color="#010501"/>
</linearGradient>
<radialGradient id="paint1_radial_515_1749" cx="0" cy="0" r="1" gradientTransform="matrix(30.7944 34.4471 -1.42193 42.8572 198.051 196.901)" gradientUnits="userSpaceOnUse">
<stop stop-color="#B1F128"/>
<stop offset="1" stop-color="#466B06"/>
</radialGradient>
<radialGradient id="paint2_radial_515_1749" cx="0" cy="0" r="1" gradientTransform="matrix(4.27969 9.70216 -0.197615 18.8354 198.049 198.205)" gradientUnits="userSpaceOnUse">
<stop stop-color="#B1F128"/>
<stop offset="1" stop-color="#466B06"/>
</radialGradient>
<radialGradient id="paint3_radial_515_1749" cx="0" cy="0" r="1" gradientTransform="matrix(20.2463 22.6479 -0.934876 28.1773 513.371 181.434)" gradientUnits="userSpaceOnUse">
<stop stop-color="#B1F128"/>
<stop offset="1" stop-color="#466B06"/>
</radialGradient>
<radialGradient id="paint4_radial_515_1749" cx="0" cy="0" r="1" gradientTransform="matrix(2.81376 6.37887 -0.129926 12.3837 513.37 182.292)" gradientUnits="userSpaceOnUse">
<stop stop-color="#B1F128"/>
<stop offset="1" stop-color="#466B06"/>
</radialGradient>
<clipPath id="clip0_515_1749">
<path d="M0 24C0 10.7452 10.7452 0 24 0H867V304H0V24Z" fill="white"/>
</clipPath>
<clipPath id="clip1_515_1749">
<rect width="193.165" height="345.5" fill="white" transform="translate(126 -20.5)"/>
</clipPath>
<clipPath id="clip2_515_1749">
<rect width="193.165" height="345.5" fill="white" transform="translate(126 -20.5)"/>
</clipPath>
<clipPath id="clip3_515_1749">
<rect width="193.165" height="345.507" fill="white" transform="translate(126 -20.5024)"/>
</clipPath>
<clipPath id="clip4_515_1749">
<rect width="127" height="227.155" fill="white" transform="translate(466 38.5)"/>
</clipPath>
<clipPath id="clip5_515_1749">
<rect width="127" height="227.16" fill="white" transform="translate(466 38.4985)"/>
</clipPath>
</defs>
</svg>
