<svg width="40" height="40" viewBox="0 0 40 40" fill="none" xmlns="http://www.w3.org/2000/svg">
<path d="M24.2253 18.4773L30.9291 21.1007C34.7958 22.6137 36.7291 23.3702 36.6651 24.5702C36.601 25.7702 34.5833 26.3205 30.548 27.421C29.3465 27.7487 28.7458 27.9125 28.3293 28.3292C27.9126 28.7457 27.7488 29.3463 27.4211 30.5478C26.3206 34.5832 25.7703 36.6008 24.5703 36.665C23.3703 36.729 22.6138 34.7957 21.1008 30.929L18.4775 24.2252C16.8933 20.1768 16.1013 18.1528 17.1271 17.127C18.153 16.1012 20.177 16.8932 24.2253 18.4773Z" stroke="#B1F128" stroke-width="2.5" stroke-linejoin="round"/>
<path d="M14.1771 3.56771C14.9877 3.41396 15.8242 3.3335 16.6795 3.3335C17.5349 3.3335 18.3714 3.41396 19.1819 3.56771M14.1771 29.7917C14.7222 29.895 15.279 29.9652 15.8454 30.0002M3.56759 19.182C3.41384 18.3715 3.33337 17.535 3.33337 16.6797C3.33337 15.8243 3.41384 14.9878 3.56759 14.1772M29.7915 14.1772C29.8949 14.7223 29.965 15.2791 30 15.8455M24.1815 5.63863C24.8635 6.10306 25.5119 6.63768 26.1167 7.24248C26.7215 7.84728 27.256 8.49568 27.7205 9.17756M9.17746 27.7207C8.49556 27.2562 7.84716 26.7217 7.24236 26.1168C6.63757 25.512 6.10296 24.8637 5.63852 24.1817M5.63852 9.17756C6.10296 8.49568 6.63757 7.84728 7.24236 7.24248C7.84716 6.63768 8.49556 6.10306 9.17746 5.63863" stroke="#B1F128" stroke-width="2.5" stroke-linecap="round" stroke-linejoin="round"/>
</svg>
