<svg width="40" height="40" viewBox="0 0 40 40" fill="none" xmlns="http://www.w3.org/2000/svg">
<path d="M31.6667 20.0001V13.3335C31.6667 8.61945 31.6667 6.26243 30.2022 4.79796C28.7377 3.3335 26.3807 3.3335 21.6667 3.3335H15C10.2859 3.3335 7.92893 3.3335 6.46447 4.79796C5 6.26243 5 8.61945 5 13.3335V26.6668C5 31.3809 5 33.7379 6.46447 35.2024C7.92893 36.6668 10.2859 36.6668 15 36.6668H18.3333" stroke="#B1F128" stroke-width="2.5" stroke-linecap="round" stroke-linejoin="round"/>
<path d="M24.1667 3.3335H12.5C12.5 5.69051 12.5 6.86903 13.2322 7.60126C13.9645 8.3335 15.143 8.3335 17.5 8.3335H19.1667C21.5237 8.3335 22.7022 8.3335 23.4345 7.60126C24.1667 6.86903 24.1667 5.69051 24.1667 3.3335Z" stroke="#B1F128" stroke-width="2.5" stroke-linecap="round" stroke-linejoin="round"/>
<path d="M11.6667 25.0002H18.3334M11.6667 18.3335H25" stroke="#B1F128" stroke-width="2.5" stroke-linecap="round" stroke-linejoin="round"/>
<path d="M26.2278 36.0877L23.3333 36.6666L23.9121 33.7723C24.0298 33.1843 24.3188 32.6444 24.7426 32.2204L31.5185 25.4448C32.1113 24.8517 33.0728 24.8517 33.6658 25.4448L34.5553 26.3343C35.1481 26.9273 35.1481 27.8886 34.5553 28.4816L27.7795 35.2573C27.3556 35.6813 26.8156 35.9702 26.2278 36.0877Z" stroke="#B1F128" stroke-width="2.5" stroke-linecap="round" stroke-linejoin="round"/>
</svg>
