<svg width="40" height="40" viewBox="0 0 40 40" fill="none" xmlns="http://www.w3.org/2000/svg">
<path d="M35.8333 7.49984C35.8333 9.34079 34.341 10.8332 32.5 10.8332C30.659 10.8332 29.1666 9.34079 29.1666 7.49984C29.1666 5.65889 30.659 4.1665 32.5 4.1665C34.341 4.1665 35.8333 5.65889 35.8333 7.49984Z" stroke="#B1F128" stroke-width="2.5"/>
<path d="M34.1185 15.6764C34.1666 17.1503 34.1666 18.8533 34.1666 20.8335C34.1666 27.9045 34.1666 31.4402 31.97 33.6368C29.7733 35.8335 26.2376 35.8335 19.1666 35.8335C12.0956 35.8335 8.56003 35.8335 6.36333 33.6368C4.16663 31.4402 4.16663 27.9045 4.16663 20.8335C4.16663 13.7624 4.16663 10.2269 6.36333 8.0302C8.56003 5.8335 12.0956 5.8335 19.1666 5.8335C21.1468 5.8335 22.8498 5.8335 24.3236 5.88175" stroke="#B1F128" stroke-width="2.5" stroke-linecap="round" stroke-linejoin="round"/>
<path d="M9.16663 20.8332H13.3333L16.6666 14.1665L21.6666 27.4998L25 20.8332H29.1666" stroke="#B1F128" stroke-width="2.5" stroke-linecap="round" stroke-linejoin="round"/>
</svg>
