<svg width="40" height="40" viewBox="0 0 40 40" fill="none" xmlns="http://www.w3.org/2000/svg">
<path d="M13.3334 10.0002C18.8562 10.0002 23.3334 8.50778 23.3334 6.66683C23.3334 4.82588 18.8562 3.3335 13.3334 3.3335C7.81052 3.3335 3.33337 4.82588 3.33337 6.66683C3.33337 8.50778 7.81052 10.0002 13.3334 10.0002Z" stroke="#B1F128" stroke-width="2.5"/>
<path d="M25.8333 15C19.8503 15 15 19.8502 15 25.8333C15 31.8163 19.8503 36.6667 25.8333 36.6667C31.8163 36.6667 36.6667 31.8165 36.6667 25.8333C36.6667 19.8502 31.8163 15 25.8333 15Z" stroke="#B1F128" stroke-width="2.5" stroke-linecap="round" stroke-linejoin="round"/>
<path d="M25.8334 31.6667C26.0079 31.6667 26.17 31.5842 26.4945 31.4193L29.1024 30.094C30.2564 29.5075 30.8334 29.2143 30.8334 28.75V22.9167M25.8334 31.6667C25.6589 31.6667 25.4967 31.5842 25.1722 31.4193L22.5644 30.094C21.4104 29.5075 20.8334 29.2143 20.8334 28.75V22.9167M25.8334 31.6667V25.8333M30.8334 22.9167C30.8334 22.4523 30.2564 22.1592 29.1024 21.5727L26.4945 20.2473C26.17 20.0825 26.0079 20 25.8334 20C25.6589 20 25.4967 20.0825 25.1722 20.2473L22.5644 21.5727C21.4104 22.1592 20.8334 22.4523 20.8334 22.9167M30.8334 22.9167C30.8334 23.381 30.2564 23.6742 29.1024 24.2607L26.4945 25.586C26.17 25.7508 26.0079 25.8333 25.8334 25.8333M20.8334 22.9167C20.8334 23.381 21.4104 23.6742 22.5644 24.2607L25.1722 25.586C25.4967 25.7508 25.6589 25.8333 25.8334 25.8333" stroke="#B1F128" stroke-width="2.5" stroke-linejoin="round"/>
<path d="M3.33337 6.6665V13.3694V20.0722C3.33337 21.2453 5.29727 22.7212 10.2164 23.3332M3.51214 14.246C5.51939 16.0159 9.09806 16.7668 12.9227 16.7668M23.314 6.86874V10.2265" stroke="#B1F128" stroke-width="2.5" stroke-linecap="round" stroke-linejoin="round"/>
</svg>
